<svg xmlns="http://www.w3.org/2000/svg" viewBox="0 0 98 98"><g transform="translate(302 -227)"><circle cx="49" cy="49" r="49" transform="translate(-302 227)"/><g id="gff-logo" transform="translate(-299 239)"><g transform="translate(0 32.179)"><path d="M51.4,53.2H44.1V66.1h7.482V64.453H45.925V60.439h5.292v-1.7H45.925V54.842H51.4Z" transform="translate(-17.274 -53.018)" fill="#fff"/><path d="M74.574,53.2H67.7V66.1h1.825V60.074h5.049V58.431H69.525V54.842h5.049Z" transform="translate(-26.519 -53.018)" fill="#fff"/><path d="M32.983,66.1V53.2H31.219v9.976l-8.7-9.976H21V66.1h1.764V56.181L31.4,66.1Z" transform="translate(-8.226 -53.018)" fill="#fff"/><path d="M113.135,52.9a6.638,6.638,0,1,0,6.935,6.63A6.607,6.607,0,0,0,113.135,52.9Zm0,11.558a4.929,4.929,0,1,1,5.049-4.927A4.934,4.934,0,0,1,113.135,64.458Z" transform="translate(-41.599 -52.9)" fill="#fff"/><path d="M95.069,59.53a6.941,6.941,0,1,0-7,6.63A6.572,6.572,0,0,0,95.069,59.53Zm-6.935,4.927a4.929,4.929,0,1,1,5.049-4.927A4.862,4.862,0,0,1,88.135,64.458Z" transform="translate(-31.807 -52.9)" fill="#fff"/><path d="M136.788,53.2H131.8V66.1h5.049a6.5,6.5,0,0,0,6.813-6.448C143.662,56.606,141.594,53.2,136.788,53.2Zm-.182,11.253h-2.92V54.842h2.859c3.589,0,5.231,2.19,5.231,4.806A4.762,4.762,0,0,1,136.606,64.453Z" transform="translate(-51.627 -53.018)" fill="#fff"/><path d="M6.874,58.431H1.825V54.842H6.874V53.2H0V66.1H1.825V60.074H6.874Z" transform="translate(0 -53.018)" fill="#fff"/><rect width="1.825" height="12.896" transform="translate(8.881 0.182)" fill="#fff"/></g><g transform="translate(17.336 5.718)"><path d="M115.9,37.306l.547-.3-1.7-3.1-5.84,3.224.365.608s2.616-1.46,2.737-1.521c.122.182,1.217,2.19,1.217,2.19l.547-.3s-1.156-2.068-1.217-2.19c.182-.061,1.764-.973,1.947-1.095C114.618,35.056,115.9,37.306,115.9,37.306Z" transform="translate(-59.993 -18.997)" fill="#fff"/><path d="M50.774,21.875l-.365-.547s-2.433,1.582-2.555,1.7l-1.338-2.007c.182-.122,2.433-1.642,2.433-1.642l-.365-.547s-2.251,1.521-2.433,1.642c-.122-.182-1.217-1.825-1.338-1.947.182-.122,2.494-1.7,2.494-1.7L47,16.4l-3.1,2.068L47.611,24Z" transform="translate(-34.532 -12.142)" fill="#fff"/><path d="M35.86,35.835s-4.988-3.041-5.11-3.163c.122-.182,1.277-2.068,1.277-2.068l-.547-.3L28.5,34.984l.547.3S30.2,33.4,30.325,33.22c.182.122,5.11,3.163,5.11,3.163Z" transform="translate(-28.5 -17.587)" fill="#fff"/><path d="M59.724,11.875a4.941,4.941,0,0,1,2.312,0l.182.061-.243-.791h-.061a5.767,5.767,0,0,0-2.312.061,4.021,4.021,0,0,0-2.251,1.7,3.366,3.366,0,0,0-.243,2.555,3.479,3.479,0,0,0,4.441,2.312,5.82,5.82,0,0,0,2.068-1.156l.061-.122-.73-2.555-2.007.547.182.608s1.156-.3,1.277-.365c.061.182.426,1.4.426,1.521a3.612,3.612,0,0,1-1.521.791,2.688,2.688,0,0,1-3.528-1.825,2.991,2.991,0,0,1,.182-2.068A3.12,3.12,0,0,1,59.724,11.875Z" transform="translate(-39.65 -10.05)" fill="#fff"/><path d="M71.781,15.6a2.028,2.028,0,0,1-2.129-2.312L69.53,9.582H68.8l.122,3.711a2.884,2.884,0,0,0,.852,2.19,2.81,2.81,0,0,0,2.007.73,2.706,2.706,0,0,0,1.947-.791,3.2,3.2,0,0,0,.791-2.372L74.4,9.4h-.73l.122,3.65C73.849,14.935,72.754,15.6,71.781,15.6Z" transform="translate(-44.286 -9.4)" fill="#fff"/><path d="M109.317,26.012a3.619,3.619,0,0,0-2.433-1.217,3.245,3.245,0,0,0-2.433.852,3.542,3.542,0,1,0,4.866.365Zm-.669,4.319a2.779,2.779,0,0,1-3.711-4.136,2.637,2.637,0,0,1,1.947-.669,2.869,2.869,0,0,1,1.947.973,3.024,3.024,0,0,1,.73,2.007A2.78,2.78,0,0,1,108.648,30.331Z" transform="translate(-57.795 -15.427)" fill="#fff"/><path d="M42.651,27.31l.487-.487L38.332,22.2l-.487.487s2.007,1.947,2.129,2.068c-.122.122-2.676,2.8-2.859,2.92-.122-.122-2.129-2.068-2.129-2.068l-.487.487,4.806,4.623.487-.487S37.724,28.222,37.6,28.1c.122-.122,2.676-2.8,2.859-2.92C40.583,25.3,42.651,27.31,42.651,27.31Z" transform="translate(-30.85 -14.414)" fill="#fff"/><path d="M93.97,14.095,91.841,13,88.8,18.961l2.19,1.095a3.746,3.746,0,0,0,2.737.365,3.3,3.3,0,0,0,1.886-1.7,3.356,3.356,0,0,0,.243-2.555A3.407,3.407,0,0,0,93.97,14.095ZM95,18.353a2.519,2.519,0,0,1-1.521,1.338,2.814,2.814,0,0,1-2.19-.243s-1.338-.669-1.521-.791c.061-.182,2.372-4.623,2.433-4.806.182.061,1.521.791,1.521.791a2.82,2.82,0,0,1,1.642,2.433A4.424,4.424,0,0,1,95,18.353Z" transform="translate(-52.12 -10.81)" fill="#fff"/><rect width="6.63" height="0.73" transform="translate(30.844 6.925) rotate(-82.935)" fill="#fff"/><path d="M83.282,10.5,81.7,16.948l3.771.912.122-.608s-2.92-.73-3.1-.73c.061-.182,1.4-5.84,1.4-5.84Z" transform="translate(-49.339 -9.831)" fill="#fff"/></g><path d="M31.746,34.794H31.32v.182l.061.061c.122-.061.3,0,.487-.122Zm-.061,5.535a4.537,4.537,0,0,1-.426.73v.365c.182-.365.426-.73.608-1.095h-.182Zm3.65-5.535c-.182.426-.487.912-.791,1.582l-.243-.365H34.24c.182-.365.365-.73.547-1.034l.061-.061h-.182a9.15,9.15,0,0,0-.547,1.095c-.122-.061-.243-.061-.365-.182l.243.365a.06.06,0,0,1-.061.061h0v.061l-.061-.122c-.061-.061-.182-.061-.243-.122l.182-.365.365-.608L34,35.038l-.365.669-.182.365c-.061,0-.122-.061-.182-.122l.122.243a1.33,1.33,0,0,1-.182.3,2.966,2.966,0,0,0-.426-.182l.487-.912-.243-.122-.547.973a2.466,2.466,0,0,1-.3.547l-.122-.3a2.542,2.542,0,0,0-.243.608h.426c.122-.243.3-.547.426-.791h0l.122.243c.061,0,.122.061.182.061a1.525,1.525,0,0,1-.243.426l-.061-.061.061.061v.061H32.9a1.525,1.525,0,0,1,.243-.426,1.128,1.128,0,0,0,.426.122.461.461,0,0,0-.122.243h.182c.122-.243.243-.426.365-.669h.061L34,36.315v-.061l.122.182c.061.061.122.061.243.122a3.612,3.612,0,0,0-.243.487H34.3a2.645,2.645,0,0,1,.243-.426h.061l.122.243c.061-.061.061-.182.182-.182l-.182-.3c.365-.669.669-1.277.852-1.582Zm-1.7,2.007-.122-.243c-.061,0-.122-.061-.182-.061.061-.061.061-.122.122-.243a2.966,2.966,0,0,0,.426.182A1.273,1.273,0,0,0,33.632,36.8Zm.487-.547h.3A.272.272,0,0,1,34.118,36.254Zm.426.182-.061-.122h.122C34.544,36.376,34.544,36.376,34.544,36.437Zm-3.224-.122.122-.243-.122-.122Zm38.748-.182c-.061.061-.061.122-.122.182h.182ZM34.24,42.824c.487-.852.912-1.7,1.4-2.494H35.4c-.3.608-.669,1.217-.973,1.825a8.124,8.124,0,0,0,.426-1.095l-.182-.3c.061-.122.182-.3.243-.426h-.182c-.487.852-.912,1.642-1.4,2.494h.182c.243-.487.547-.973.791-1.4a5.564,5.564,0,0,1-.547,1.034l.243.365h0c0-.061.061-.061.061-.122,0,.061-.061.061-.061.122h.243ZM81.261,41.3l-.182-.122a5.482,5.482,0,0,1-.3.547,2.48,2.48,0,0,0-.426.122l-.182.365.791-.243.061-.061.243-.426ZM31.624,36.984l.73-1.277-.182-.122-.73,1.277a.461.461,0,0,0-.122.243H31.5C31.564,37.106,31.564,37.045,31.624,36.984Zm-.3-1.095.73-.3c.243-.061,1.034-.426,1.947-.791h-.791a11.456,11.456,0,0,1-1.217.487l-.669.243v.365Zm12.9-4.38a1.146,1.146,0,0,1-.487.122h.852a2.168,2.168,0,0,0,.669-1.156,2.8,2.8,0,0,0-1.277-2.92,1.557,1.557,0,0,0-1.277,0,1.816,1.816,0,0,0-.912,1.338,2.838,2.838,0,0,0,1.034,2.737h.852a1.432,1.432,0,0,1-.487-.122,2.467,2.467,0,0,1-1.156-2.555,1.49,1.49,0,0,1,.73-1.095,1.227,1.227,0,0,1,1.034,0,2.467,2.467,0,0,1,1.156,2.555A1.445,1.445,0,0,1,44.216,31.51Zm2.8.061h0l.182.061h0l.061-.061A.185.185,0,0,0,47.014,31.57Zm-1.277,8.455h-.061v.061A.06.06,0,0,1,45.737,40.026Zm2.981-4.38ZM47.562,31.57h0l.061.061C47.623,31.57,47.623,31.57,47.562,31.57ZM48.6,36.862a6.263,6.263,0,0,1,1.156-2.068h-.365a.06.06,0,0,1-.061.061l-.182.061c-.122.061-.243.243-.365.3a.316.316,0,0,1,.122.243,4.85,4.85,0,0,0-.487.973.212.212,0,0,0-.122.061v.061c0,.122,0,.182-.061.243v.122H48.6Zm21.594.061a1.052,1.052,0,0,0,.608-.061l-.182-.365a1.052,1.052,0,0,1-.608.061ZM38.863,46.352c-.061,0-.122.061-.182.061a14.4,14.4,0,0,1,.061,5.231c.3-.122.608-.182.912-.3A11.411,11.411,0,0,0,38.863,46.352ZM40.506,51.1a11.3,11.3,0,0,0-.791-4.988.223.223,0,0,0-.182.061,14.342,14.342,0,0,1,.061,5.231A3.206,3.206,0,0,1,40.506,51.1Zm40.756-7.421a.06.06,0,0,1,.061-.061v-.73a.86.86,0,0,1-.243.608Zm-70.623,4.5Zm27.312-1.521c-.061,0-.122.061-.243.061a13.815,13.815,0,0,1,.122,5.231c.3-.122.547-.182.852-.3A9.767,9.767,0,0,0,37.951,46.656Zm-1.095.365a11.707,11.707,0,0,1,0,5.292l.912-.365a8.6,8.6,0,0,0-.791-4.988C36.917,47.021,36.917,47.021,36.856,47.021Zm-2.92-6.691c-.3.608-.669,1.156-.973,1.764v-.061h.061l-.061-.061q0-.091-.182-.182a.06.06,0,0,0-.061-.061h0l-.061-.061a.06.06,0,0,0-.061.061c.243-.487.487-.912.73-1.4h-.182c-.3.547-.608,1.095-.912,1.582a1.33,1.33,0,0,1-.3.182c.061-.122-.061-.122-.182-.122l.912-1.642h-.182l-.912,1.642H31.5v.061c-.061.122-.122.182-.182.3V42.7c.061-.182.182-.3.243-.487h0v.122h0a1.272,1.272,0,0,0,.243.365v.061h.3c0-.061.061-.122,0-.182a.06.06,0,0,1,.061-.061,2.645,2.645,0,0,0,.426-.243.98.98,0,0,1-.243.426c0,.061,0,.061.061.061h.608c.061-.061.122-.061.182-.122l-.182-.3c.365-.669.791-1.4,1.156-2.068h-.243Zm-2.068,2.129-.061.061-.061-.122c.061,0,.061,0,.122.061Zm-17.945.547a1.035,1.035,0,0,0-.426.061l-.182.061v.3l.122.061h-.122v.3a4.269,4.269,0,0,1,.547-.365v-.426Zm5.779.426.122.243a3.905,3.905,0,0,0,.791.608c.608.243,1.217.547,1.886.791a13.452,13.452,0,0,0,1.521.3,2.646,2.646,0,0,1-.365-.426,5.769,5.769,0,0,1-1.4-.3c-.122-.061-.182-.061-.3-.122a1.1,1.1,0,0,0,.608-.122h0c.243.061.487.122.791.182-.122-.122-.243-.3-.365-.426a2.156,2.156,0,0,1-.669-.182l-1.46-.547a.672.672,0,0,0,.487,0l-.122-.243c.426.182.791.3,1.217.487.061,0,.122.061.243.061-.122-.182-.3-.3-.426-.487a6.832,6.832,0,0,1-2.676-1.277l.243.426a2.315,2.315,0,0,0,.791.547c.122.061.182.061.3.122-.182,0-.3-.061-.487-.061l.182.365a3.477,3.477,0,0,1-.973-.669l.243.426a2.315,2.315,0,0,0,.791.547c.426.182.852.365,1.217.487h-.182l.182.365a6.732,6.732,0,0,1-2.19-1.095l-.182-.426h-.061l.243.426Zm-5.779-.669h-.608v.061a.266.266,0,0,1,.182.061h-.182c.182,0,.365-.061.547-.061v-.061Zm33.4-39.478A33.907,33.907,0,0,1,80.288,29.563h.547a34.292,34.292,0,0,0-66.912,0h.547A33.667,33.667,0,0,1,47.318,3.285ZM19.7,41a3.056,3.056,0,0,0,.73.487,1.821,1.821,0,0,1,.487.243c-.122-.182-.3-.3-.426-.487a5.777,5.777,0,0,1-1.034-.608Zm.122.973a.772.772,0,0,0,.365.061c.122.061.182.122.3.182.426.182.912.365,1.338.547a3.047,3.047,0,0,0-.426-.487,6.592,6.592,0,0,1-1.156-.487l-.061-.122h-.182a1.464,1.464,0,0,1-.487-.365l.182.3H19.58Zm-.3-1.947.182.3c.061.061.182.122.243.243A3.343,3.343,0,0,1,19.519,40.026Zm-6.144,4.5c.182,0,.365-.061.547-.061v-.3a4.955,4.955,0,0,0-.547-.122ZM65.567,41c.061.122.061.243.182.365l.182-.122c0,.061.061.061.061.122l.182-.122a5.152,5.152,0,0,1-.243-1.034H65.75A3.714,3.714,0,0,1,65.567,41Zm.852-5.414a3.539,3.539,0,0,1-.973.3h-.061c.061.122.061.182.122.3h0a3.429,3.429,0,0,0,.73-.243A.99.99,0,0,0,66.419,35.585Zm.426-.669a4.051,4.051,0,0,1-1.642.669c.061.061.061.122.122.182a3.991,3.991,0,0,0,1.277-.487A1.272,1.272,0,0,1,66.845,34.916Zm1.521-1.764a4.459,4.459,0,0,0,.243-1.338h-.122a2.2,2.2,0,0,0,.061-.852h-.182a4.562,4.562,0,0,0,.061-.73h-.243c0,.3.061,2.8-2.068,3.285l.061.182A2.845,2.845,0,0,0,68.3,31.205a3.423,3.423,0,0,1-2.676,3.285l.061.243A3.354,3.354,0,0,0,68.365,32.3,6.555,6.555,0,0,1,68,33.517ZM65.81,37.592h0v0Zm0,2.372Zm-37.9-2.616-.122-.061a4.364,4.364,0,0,0-.426.669v.365c.243-.365.426-.669.547-.852ZM18.972,48.481l.243.426c.061.061.122.061.243.061l-.243-.426A.46.46,0,0,1,18.972,48.481Zm8.394-2.8.547-.912v-.365l-.547.912Zm31.145,6.083c0-1.886-.061-3.711-.061-5.6h-.061c0,1.886,0,3.832.061,5.718a.461.461,0,0,0,.122.243h0c0,.061.061.061.122.122l.061.061c0-.061-.061-.122-.122-.182h0a.06.06,0,0,0-.061-.061A.661.661,0,0,1,58.511,51.766ZM35.031,40.33h0c.061.061.061,0,.061,0Zm-7.117.3c-.182.3-.365.608-.547.973v.365c.182-.3.365-.608.547-.973Zm8.394-.3h-.182c-.487.852-.912,1.7-1.4,2.494h.243C35.457,41.972,35.882,41.181,36.308,40.33ZM36.734,34a.3.3,0,0,0,.061-.182l-.061-.061Zm-8.82,7.908c-.182.3-.365.608-.547.973v.3a1.273,1.273,0,0,1,.243-.365,1.36,1.36,0,0,0,.182.608l-.365.182v.426h.061a.06.06,0,0,1-.061.061v.487c.061,0,.122,0,.122-.061.061-.061.182-.122.182-.182L27.61,44.1c.061-.061.061-.122.122-.182s.182-.061.243-.122v-.608c-.061.061-.061.122-.122.182a.366.366,0,0,1,.061-.243l-.182-.365c.122-.182.182-.3.3-.487v-.365Zm0-9.672c-.182,0-.365.061-.547.061v.3c.182,0,.365-.061.547-.061ZM22.987,46.048a10.315,10.315,0,0,1-1.338-.243,5.9,5.9,0,0,1-2.068-.973l.182.3a3.56,3.56,0,0,0,1.642.852c.487.182.912.3,1.4.487a2.465,2.465,0,0,0,.608.182h-.061l.243.426c.182,0,.3-.061.487-.061l-.182-.365h.061ZM34.605,40.33h-.426c-.061.182-.122.3-.182.487l.243.426ZM18.85,43.615l.243.426a1.545,1.545,0,0,0,.608.487l-.243-.426C19.276,43.919,19.033,43.8,18.85,43.615Zm9.064-6.752c-.061,0-.061,0-.122.061-.122.061-.3.061-.426.122v.3c.182-.061.3-.061.487-.122h.061v-.365Zm19.4-35.038a35.347,35.347,0,0,1,34.49,27.738h1.886a37.123,37.123,0,0,0-72.691,0h1.886A35.279,35.279,0,0,1,47.318,1.825Zm-19.4,31.814h-.547v.243c.182,0,.365-.061.547-.061Zm0,4.927v-.608c-.061.061-.061.061-.061.122l.061.122a6.635,6.635,0,0,0-.365.669l-.122.122-.061-.061v1.034l.122-.122c.061-.061.122-.061.182-.122a5.349,5.349,0,0,0-.365.608v.365c.182-.3.365-.608.547-.973v-.487c-.182.061-.3.061-.487.122a.06.06,0,0,1,.061-.061h.122l-.061-.061c.061-.061.122-.182.182-.243A3.49,3.49,0,0,0,27.914,38.566ZM20.249,50.245c-.061-.061-.122-.061-.182-.122l.243.426c.061.061.122.061.182.122Zm27.556-.3c-.122-1.034-.365-3.163-.73-4.806h-.182A27.661,27.661,0,0,1,47.014,50,3.214,3.214,0,0,1,47.805,49.941ZM37.16,42.094Zm28.164-.182a.06.06,0,0,0-.061-.061c0,.061-.061.061-.061.122Zm-7.969-3.346a.341.341,0,0,1-.365.3l.122.182a.334.334,0,0,0,.365-.243.222.222,0,0,0-.122-.3v.061Zm-8.7,11.314a42.872,42.872,0,0,0-.669-4.806h-.182a34.7,34.7,0,0,1,.122,4.866A2.962,2.962,0,0,1,48.657,49.88Zm8.7-11.314h0c0-.061,0-.061-.061-.061Zm21.777,5.292-.365.365c.3-.122.608-.243.852-.365H79.5C79.375,43.736,79.254,43.8,79.132,43.858ZM58.693,40.573c.061,0,.061-.061.122-.061a9.554,9.554,0,0,0,2.555-1.4l-.182-.182a8.555,8.555,0,0,1-1.947,1.156c0-.061.061-.122.061-.182H59.18v-.243a10.322,10.322,0,0,0,1.46-.852l-.122-.182a5.554,5.554,0,0,1-1.338.791v-.365h0c0-.061.061-.061.061-.122.243-.122.487-.3.73-.426l-.122-.182-.547.365c-.122-.852-2.616-1.277-5.11-1.277-.061.182-.122.426-.182.608a10.5,10.5,0,0,1,2.19.182l.061.122c.365.061.669.182.973.243,0-.061,0-.061-.061-.122l-.061-.061q.547.182.547.365c0,.061-.122.182-.365.3l.122.3q.547-.274.547-.547c0-.608-1.521-.912-2.981-1.034,2.433.122,3.954.608,3.954,1.034s-1.886,1.034-4.927,1.034a3.011,3.011,0,0,0,.243.791,13.93,13.93,0,0,0,3.285-.365l-.912-.122c.365-.061.669-.122,1.034-.182h-.182a.223.223,0,0,0,.182-.061l-.061-.182a2.993,2.993,0,0,0,1.46-.608c0,.243.061.547-.061.73h0c0,.426-1.7.973-4.5,1.034.061.122.122.182.182.3a18.76,18.76,0,0,0,2.92-.3,5.753,5.753,0,0,1-2.737.608c.061.122.182.182.243.3h.365a.772.772,0,0,0,.061.365,1.068,1.068,0,0,1,.3.243,2.282,2.282,0,0,0-.061-.608.548.548,0,0,0,.3-.061v.122l.973-.243a2.392,2.392,0,0,0,.365-.122.06.06,0,0,0,.061.061l-1.4.365a7.775,7.775,0,0,0,1.4-.365,4.012,4.012,0,0,1,.243.669V42.4l-1.217.243h.061a3.677,3.677,0,0,0,1.095-.243v.122a5.834,5.834,0,0,1-.912.182,5.185,5.185,0,0,0,1.4.182h0c.061,0,.061,0,.122-.061v.061h.061v-.061c.061-.061.122-.061.182-.122v.122a.548.548,0,0,0,.3-.061v-.3L59,42.276a16.666,16.666,0,0,0,2.737-1.217c.061-.122.182-.243.243-.365a13.385,13.385,0,0,1-2.8,1.338.672.672,0,0,0,0-.487,14.3,14.3,0,0,0,3.1-1.642.772.772,0,0,0,.061-.365A10.608,10.608,0,0,1,59.119,41.3.865.865,0,0,1,59,40.938a9.587,9.587,0,0,0,2.981-1.7l-.182-.122a11.685,11.685,0,0,1-2.92,1.642C58.815,40.756,58.754,40.634,58.693,40.573Zm-.182.061Zm.182,1.338c-.061.061-.061.243-.061.487a2.8,2.8,0,0,1-.608.3.9.9,0,0,0,.061-.426,2.277,2.277,0,0,0-.3-1.095.44.44,0,0,0,.243-.365c.061,0,.122-.061.182-.061l.122.182C58.633,41.3,58.876,41.607,58.693,41.972Zm-38.14,9.185c-.061,0-.182,0-.182-.061l.243.426a.223.223,0,0,0,.182.061ZM71.772,38.14l-.182-.365h-.122l.182.365ZM81.93,45.987a20.743,20.743,0,0,1-.243,6.022c0,.912-1.338,1.764-3.406,2.312,1.947-.547,3.041-1.338,3.285-1.947.122-.3.122-.547-.061-.669-.182-.182-.243-.122-.365-.487s-.426-6.326-.852-6.935c-.365-.487-.426-.365-.608-.365a5.486,5.486,0,0,1-1.338.669,7.948,7.948,0,0,1-1.7,1.034,7.8,7.8,0,0,0,3.406-1.156c-1.156,1.277-4.623,1.825-5.9,1.947a.661.661,0,0,0-.061.3c1.825-.061,5.292-.669,6.083-1.4-1.277,1.338-4.866,1.886-6.2,1.947a.661.661,0,0,1-.061.3c1.886,0,5.475-.669,6.326-1.4-1.338,1.46-4.988,1.886-6.387,1.947v.3c1.886,0,5.6-.669,6.448-1.4-1.4,1.521-5.049,1.886-6.509,2.007v.3c1.947.061,5.718-.73,6.63-1.4-1.521,1.582-5.11,1.886-6.691,2.007a.548.548,0,0,1-.061.3c1.947.061,5.9-.73,6.813-1.4-1.582,1.642-5.17,1.947-6.874,2.007a.366.366,0,0,1-.061.243c2.007.122,6.022-.73,7-1.4-1.7,1.7-5.292,1.947-7.056,2.007a.366.366,0,0,1-.061.243c2.007.182,6.2-.73,7.178-1.4-1.764,1.825-5.414,1.947-7.3,2.007,0,.061-.061.182-.061.243a18.546,18.546,0,0,0,7.421-1.4c-1.947,1.947-5.718,2.129-7.664,2.19-.061.182-.182.365-.243.365a22.8,22.8,0,0,1-4.623-.3,10.876,10.876,0,0,1-1.947-.791,1.4,1.4,0,0,0-.547-.182,1.684,1.684,0,0,0-.061-.547,3.561,3.561,0,0,0-1.338-2.19l.122-.122a.886.886,0,0,0,.365-.547,2.319,2.319,0,0,0-.669-1.4c-.061-.122-.182-.182-.243-.243A18.509,18.509,0,0,1,64.29,43.8a.06.06,0,0,1,.061.061l.243.122.182.061h.3c.122-.061.243-.061.487.061l.122-.3a.794.794,0,0,0-.73-.061H64.9l-.182-.061-.3-.122a.212.212,0,0,1-.122-.061c-.182.182-.365.426-.547.608.061,0,.061-.061.122-.061a2.187,2.187,0,0,0-.122.669,10.341,10.341,0,0,1-1.764.73,9.221,9.221,0,0,1-1.947.73,14.31,14.31,0,0,0,3.65-1.156,1.875,1.875,0,0,0-.061.608,14.154,14.154,0,0,1-4.806.973v-.243h-.3c0,2.433.122,5.11.122,5.961v.122a3.913,3.913,0,0,1,.182,2.19h.061a1.163,1.163,0,0,1-.547.547v-.365a4.759,4.759,0,0,0-.426-2.129c-.061-1.886-.122-4.319-.122-6.326a1.684,1.684,0,0,1-.547-.061.771.771,0,0,1-.365.061,2.931,2.931,0,0,1-.73,0c0-.122.061-.182.122-.3a5.067,5.067,0,0,1-.912-.243v6.509c-2.19.182-5.414-.182-6.022-1.521V50a4.1,4.1,0,0,0,1.521.791,12.9,12.9,0,0,0,2.676.365l.912.061V49.15h.547V47.629h-.608V45.379c-.182-.061-.3-.182-.487-.243h-1.4a6.522,6.522,0,0,1-3.224-.73h0V43.8a7.11,7.11,0,0,0,3.65.669l-.73-.73V44.1h.122a.06.06,0,0,0,.061.061,5.137,5.137,0,0,1-3.1-.791,1.339,1.339,0,0,0-.061-.487,3.012,3.012,0,0,0,.791.243,2.674,2.674,0,0,0,.061.547h.3a1.186,1.186,0,0,0-.061-.487,11.766,11.766,0,0,0,1.642.243,1.327,1.327,0,0,0-.243-.3,8.849,8.849,0,0,1-1.521-.243h0c-.061-.061-.061-.061-.061-.182.061.122.122.182.243.182.3,0,.608.061.912.061.122,0,.243.061.365.061-.061-.061-.061-.122-.122-.182a.772.772,0,0,0-.365-.061c-.3,0-.608-.061-.912-.061h-.061V42.58l-.061-.122a3.552,3.552,0,0,1,.243-1.095,4.192,4.192,0,0,0,.487.182c-.061-.122-.061-.243-.122-.365a2.384,2.384,0,0,1-.547-.243,1.186,1.186,0,0,0,.487.061c-.061-.122-.061-.243-.122-.3a4.134,4.134,0,0,1-1.7-.608h-.365c.061.243.3.426.669.547a1.707,1.707,0,0,0-.608.852c-.122-.426-.243-.912-.365-1.4h-.3c.061.182.061.3.122.487l-.061-.061a2.151,2.151,0,0,1-.061-.365h-.243c-.608.061-.852.243-.852.3l-.122-.122v-.182h-.3v1.764h-.73a1.941,1.941,0,0,0,.365-.426v.365h.3V40.086h-.3v.061l-.669.669v.243l.669-.669v.791a5.092,5.092,0,0,1-.608.608h-.061v.3c1.156-.061,2.19,0,3.1,0h0v.061a.526.526,0,0,0,.182.365,1.821,1.821,0,0,0,.243.487A20.947,20.947,0,0,1,48.9,45.2v.487c-.061-.182-.061-.426-.122-.608h-.3a23.3,23.3,0,0,1,.061,4.806h.3a6.612,6.612,0,0,1-.061,1.095H46.467c-.122-.3-.3-.608-.487-.973.182,0,.365-.061.547-.061a46.022,46.022,0,0,0-.791-4.866h-.182a25.627,25.627,0,0,1,.182,4.5,2.645,2.645,0,0,0-.243-.426c-.122-.912-.3-2.068-.547-3.224H44.7c.061.73.122,1.764.122,2.8l-.3-.061c-.122-.791-.243-1.764-.487-2.737H43.79a16.75,16.75,0,0,1,.122,2.616l-.365-.061a20.861,20.861,0,0,0-.487-2.555h-.243A23.609,23.609,0,0,1,43,48.359l-.365-.061a18.287,18.287,0,0,0-.487-2.372H41.9a23.617,23.617,0,0,1,.182,2.494l-.243.061h-.122a11.214,11.214,0,0,0-.73-2.981h-.122a20.8,20.8,0,0,1,.3,3.163,1.068,1.068,0,0,0-.3.243,11.48,11.48,0,0,0-.73-3.285.223.223,0,0,0-.182.061,15.125,15.125,0,0,1,.122,5.17c.122-.061.243-.061.365-.122a3.56,3.56,0,0,0-.122.791,28.223,28.223,0,0,0-6.448,2.251,2.249,2.249,0,0,0,.3-.669c.73-.365,1.4-.669,2.129-.973a8.022,8.022,0,0,0-.669-4.988c-.061,0-.122.061-.182.061a11.225,11.225,0,0,1-.122,5.292,7.615,7.615,0,0,0-.487-4.988c-.061.061-.182.061-.243.122a9.627,9.627,0,0,1-.182,5.049,7.332,7.332,0,0,0-.365-4.745.461.461,0,0,1-.243.122,4.929,4.929,0,0,0-1.7-2.19.212.212,0,0,1-.122-.061H30.1a2.575,2.575,0,0,0-.912,1.277v-.061h0c0-.061-.061-.122-.122-.182.182-.365.426-.669.608-1.034h-.243l-.547.912-.122-.122a1.188,1.188,0,0,0-.426.061c.182-.3.3-.547.487-.852h.426c-.182.3-.365.669-.547.973a2.185,2.185,0,0,0-.608.426c0-.061-.061-.122-.061-.182.243-.365.487-.791.73-1.156h-.243l-.547.912a1.821,1.821,0,0,0-.243-.487,5.609,5.609,0,0,1,.3-.487h0v-.3a5.35,5.35,0,0,1-.365.608l-.061-.061c-.182-.122-.365.122-.547.243a3.742,3.742,0,0,0,.061.791,8.827,8.827,0,0,0-.73,1.156c-.182,0-.365-.061-.608-.061a6.371,6.371,0,0,0,.487-.669.844.844,0,0,0,.547,0l-.243-.426h-.061c.243-.365.487-.73.73-1.156H27c-.243.426-.547.852-.791,1.217a1.776,1.776,0,0,1-.547-.122,8.537,8.537,0,0,0,.73-1.095H26.15a6.748,6.748,0,0,1-.73.973.131.131,0,0,1-.122-.122,2.069,2.069,0,0,1,.061-.608v-.061c.061-.061.122-.182.182-.243h-.426v.3a1.941,1.941,0,0,1-.426.365l.061.182c.061-.061.182-.122.3-.243V46.6c0,.061,0,.061.061.122h0a.06.06,0,0,0,.061.061,1.273,1.273,0,0,0,.243.365,3.23,3.23,0,0,1-.669.669l.061.182a1.972,1.972,0,0,0,.73-.73l.122.122.365.182c-.182.243-.365.487-.487.669-.061-.061-.182-.061-.243-.122l-.122-.061a.06.06,0,0,0,.061.061h0a.06.06,0,0,0,.061.061c.061.061.061.122.122.182a1.928,1.928,0,0,1-.669.608l.061.182a2.216,2.216,0,0,0,.73-.669l.061.061a4.192,4.192,0,0,0,.487.182,5.337,5.337,0,0,1-1.338,1.46l.061.182a4.685,4.685,0,0,0,1.4-1.582.837.837,0,0,0,.669-.061,10.071,10.071,0,0,1-2.129,2.616l.061.182c.061,0,.122-.061.182-.122l.122.243a1.776,1.776,0,0,1-.547.122l.243.426a1.339,1.339,0,0,0,.487-.061,1.91,1.91,0,0,1-.608.487l.061.182a3.636,3.636,0,0,0,.912-.852l.061-.061.061.122c-.061,0-.061.061-.122.061l.061.182c.061,0,.061-.061.122-.061h0a2.182,2.182,0,0,0,.852-.608l.061.182a5.3,5.3,0,0,0,1.46-1.46c.122,0,.182.061.3.061L28.4,49.88c.3-.426.669-.912,1.034-1.46,0,.182-.061.365-.061.608h-.182l.122.243c-.061.061-.122.182-.182.243a.548.548,0,0,0-.3.061l.122.182a3.99,3.99,0,0,1-1.156,1.156l.061.182a3.99,3.99,0,0,0,1.156-1.156h0a.772.772,0,0,1,.365-.061V50a4.438,4.438,0,0,1-.608.547l.061.122c-.547.3-1.095.608-1.642.852-1.217.669-2.494,1.277-2.676,1.338h-.122a.988.988,0,0,1,0-.608v-.365l.061-6.022a2.316,2.316,0,0,1-.3-.365v.487l-.73-.487a13.45,13.45,0,0,1-1.521-.3,7.826,7.826,0,0,1-2.372-1.156l.182.365a2.552,2.552,0,0,0,.852.547l.182.3.182.182-.122-.426h-.061a.865.865,0,0,0,.365.122c.547.243,1.095.426,1.642.608a4.2,4.2,0,0,0,1.521.243v1.46a2.635,2.635,0,0,0-.3-.061c.122.061.182.122.3.122v1.521H24.2l-.061-.061h-.3c-.122,0-.3-.061-.426-.061.122,0,.3.061.426.061l-.243-.243-2.129-.912c-.243-.061-.487,0-.73-.061-.426-.182-.791-.122-1.095-.487l.122.182a6,6,0,0,0,2.92,1.277,3.877,3.877,0,0,0,.547.122l.243.365a3.053,3.053,0,0,0,.73.122v.426h-.182v.061H24.2v.547l-.122-.243a2.065,2.065,0,0,1-1.156-.3l.243.426a.212.212,0,0,1,.122.061.223.223,0,0,1-.182-.061l-.122-.182c-.061.061-.122,0-.182,0l.061.061a4.61,4.61,0,0,1-.973-.365h.122l-.243-.426a.366.366,0,0,0-.243.061l.182.3a8.355,8.355,0,0,1-1.217-.791l-.061-.061c-.122,0-.182.061-.3,0-.182-.061-.3.061-.487-.122l.061.122a8.524,8.524,0,0,0,3.285,1.521l.061.122h.182v-.061a.366.366,0,0,1,.243.061c.061.061.122-.061.122-.061.182.061.426.061.608.122V51.1l-.122-.243a1.877,1.877,0,0,1-1.095-.3l.243.426a.461.461,0,0,0,.243.122,7.735,7.735,0,0,1-3.528-1.582h0c-.061,0-.061.122-.122.061-.122-.061-.122.122-.182.061V49.7a9.947,9.947,0,0,0,3.346,1.582l.122.182a1.339,1.339,0,0,0,.487.061l-.061-.122c.122,0,.182.061.3.061.061,0,0-.122,0-.243.122,0,.243.061.365.061v.912l-.182-.243A9.968,9.968,0,0,1,19.4,50.062l.243.426A9.659,9.659,0,0,0,24.2,52.313V52.8c-3.346-.73-5.414-1.886-5.414-3.041l-.061-3.285c-.061-.608-.182-6.448-.182-7.117V38.87a1.613,1.613,0,0,1-.3-.365v.852c0,.3.061,1.582.061,3.041a5.324,5.324,0,0,1-.973.122v.061c.365-.061.669-.061.973-.122v.182c-.3.061-.669.061-.973.122v.365l.061.061h-.243v.182l.061.061-.061.061v.487c.365-.061.669-.061,1.034-.122a5.233,5.233,0,0,0,.061.973c-.3.061-.669.182-1.034.243v.182c.426-.122.791-.182,1.095-.243V45.2c-.3.061-.669.182-1.095.243v.122c.426-.122.791-.182,1.095-.243V45.5c-.3.061-.669.182-1.095.243v.243H16.052c-.608.122-1.277.3-1.886.426l-.122.182.243.122-.243.243.182.122-.243.182s-.608-.182-.73-.243c-.061-.061.122-.243.3-.426-.547.122-1.095.243-1.582.365h.061l-.669.3h.669a3.064,3.064,0,0,1-.912.3c-.243,0-.912-.122-.912-.243a7.053,7.053,0,0,1-.912.182v-.182c.061,0,.547-.122,1.217-.243.122-.061.243-.182.365-.243-.973.182-1.7.365-1.764.365v-.061c.061.122-.365.487-.365.487l-1.338-.182h.122l.182-.182a3.878,3.878,0,0,0-.426.122c-1.156.3-2.555,1.582-2.494,1.947s1.217.547,2.19.182c.487-.182,1.034-.3,1.642-.487-.487.426-.791.791-.791.973.061.365,1.217.547,2.19.182a20.269,20.269,0,0,1,2.312-.608A37.112,37.112,0,0,0,80.47,53.834c-.061,0-.182.122-.487.243,1.277-.547,2.007-1.277,2.007-2.007a20.615,20.615,0,0,0,.243-6.022h-.3ZM54.679,47.933h.182v.852H54.01a14.391,14.391,0,0,1-2.981-.243,4.42,4.42,0,0,1-1.46-.791v-.73a7.463,7.463,0,0,0,3.163.912h1.947Zm-2.737,1.034a1.822,1.822,0,0,1-.243.608.946.946,0,0,1-.487.365c-.608.122-1.277-.669-1.582-1.764a5.607,5.607,0,0,0,1.217.608A3.181,3.181,0,0,0,51.941,48.968Zm.791-3.528h1.521v2.19H52.306v-.182a2.92,2.92,0,0,0-1.338-2.129C51.637,45.379,52.306,45.439,52.732,45.439ZM52,47.447v.061a8.984,8.984,0,0,1-2.433-.852,1.565,1.565,0,0,1,.3-.852.946.946,0,0,1,.487-.365C50.968,45.318,51.759,46.23,52,47.447Zm-2.494-2.737a3.18,3.18,0,0,0,.973.365H50.3a1.276,1.276,0,0,0-.669.487.223.223,0,0,0-.061.182A5.566,5.566,0,0,1,49.508,44.709ZM49.447,48.6c.365,1.095,1.156,1.825,1.825,1.642a1.276,1.276,0,0,0,.669-.487,2.633,2.633,0,0,0,.3-.73,16.515,16.515,0,0,0,1.7.061h.3v1.7c-.182,0-.608-.061-.608-.061a12.309,12.309,0,0,1-2.616-.3,3.987,3.987,0,0,1-1.521-.852l-.122.122A6.611,6.611,0,0,0,49.447,48.6ZM47.44,41.425a3.586,3.586,0,0,1-.487.243v-.3l.608-.243.182-.365s.669-.061.487-.061c-.182.061-.243.061-.426.365C47.623,41.3,47.744,41.242,47.44,41.425Zm.3.365a.212.212,0,0,1,.061-.122h.122l.608.061a.188.188,0,0,0,.122-.061c0,.061,0,.061.061.122ZM6.806,47.629h.608c.122,0,.182.243.122.365s-.487.243-.487.243l-.669-.122A1.647,1.647,0,0,1,6.806,47.629Zm-1.277.852.3-.182.243.122-.182.243H5.468Zm-.122.73H5.042v-.182l.3-.243.243.122Zm.487.487-.3-.243v-.182h.3l.243.3Zm-.182-.547.061-.3.608-.426a1.036,1.036,0,0,1,.426.243l-.365.487h-.73Zm1.947-.061c-.061.122-.487.243-.487.243l-.73-.061a6.548,6.548,0,0,1,.669-.487s.487.061.608.061S7.779,48.968,7.658,49.089Zm.73-.669c-.061.122-.487.243-.487.243l-.669-.122a2.689,2.689,0,0,1,.487-.547h.608A.5.5,0,0,1,8.388,48.42Zm57.24,4.806a1.226,1.226,0,0,0,.547.426c.669.365,2.616.973,6.813,1.156a16.069,16.069,0,0,0,3.528-.182,21.431,21.431,0,0,1-3.528.243,16.428,16.428,0,0,1-7.36-1.4C65.567,53.469,65.628,53.347,65.628,53.226Zm-1.217-4.2c0,.122-.061.182-.182.243h0l-.061.122a1.279,1.279,0,0,1-.912.122.428.428,0,0,1-.243-.3,1.878,1.878,0,0,0-.3-.608c-.061-.122-.122-.182-.122-.243V48.3c0-.182.182-.3.3-.365a4.868,4.868,0,0,1,.669-.3C63.681,47.69,64.472,48.6,64.411,49.028ZM63.56,51.4l.061.426a.212.212,0,0,1-.122.061,2.793,2.793,0,0,0-.061-.608.223.223,0,0,1-.182.061l.182.182a.461.461,0,0,1-.243.122l.182.182a.461.461,0,0,1-.243.122l.061.122a1.128,1.128,0,0,1-.426.122v.122h-.182l-.122-.122-.365-.061-.365.061c-.243,0-.365-.182-.608-.547l-.3-.547h.061v-.061a.661.661,0,0,1,.061-.3h0a1.453,1.453,0,0,1,.182-.426h.061a1.08,1.08,0,0,0,.852-.669l.365-.912v-.061c0,.061.061.061.061.122.061.061.061.122.122.182h0a2.9,2.9,0,0,1,.3.852,1.37,1.37,0,0,1-.061.426c.182.122.547.243.669.122l.061.061A2.965,2.965,0,0,1,63.742,50a1.982,1.982,0,0,0-.243.791Zm.061-5.779c0,.243-.061.487-.061.791-1.46.122-2.981.182-4.441.182A14.31,14.31,0,0,0,63.621,45.622ZM58.876,46.9a30.46,30.46,0,0,0,4.684-.182v.608a3.056,3.056,0,0,0-.791.3h0c-.061.061-.182.122-.243.243h0l-.061.182h0l-.365.487-.122.243a4.091,4.091,0,0,0-2.068.122,2.441,2.441,0,0,0-.973.791C58.876,48.785,58.876,47.812,58.876,46.9Zm.061,4.136Zm.061.182h0c.061,0,.061,0,.122.061a1.684,1.684,0,0,1-.061-.547H59v-.182a.212.212,0,0,0,.122-.061h0c0-.061.061-.122.061-.182H59v-.122h0a.223.223,0,0,1,.182-.061.212.212,0,0,1,.061.122c.061-.061.061-.182.122-.243H59.18c.061-.061.061-.122.122-.182h0a.613.613,0,0,1,.061.182c.122-.182.3-.426.426-.608.122-.061.182-.122.3-.182a3.16,3.16,0,0,1,1.825-.122l-.122.365a.06.06,0,0,1-.061.061h-.122c-.182-.061-.365-.061-.669.243l-.182.182L60.7,50H60.64c-.243.3-.547.669-.122,1.217l.3.487c.243.426.426.73.912.73l.426-.061h.182c.061.182.182.182.669.122.669-.061,1.034-.122,1.156-.547l.061-1.338-.061-.061-.243-.182c.061-.122.122-.3.182-.426A2.657,2.657,0,0,1,65.2,51.583v.243a.461.461,0,0,1,.122.243v.243c-.061-.122-.182-.182-.243-.243a.06.06,0,0,1-.061.061,1.412,1.412,0,0,1,.243.608v.122h0a1.306,1.306,0,0,0-.243-.426.548.548,0,0,0,.061.3,1.963,1.963,0,0,1,.122.73,1.16,1.16,0,0,0-.243-.608v-.243c0-.061-.061-.061-.061-.122,0,.061-.061.061-.061.122v.3h0a1.722,1.722,0,0,1,.122.912,1.82,1.82,0,0,0-.182-.669v-.122c-.061-.061-.061-.122-.122-.182l-.061.061c0,.182-.061.547-.061.608a.879.879,0,0,0-.122-.426h-.061c0,.182-.122.608-.122.73a1.453,1.453,0,0,0-.122-.547.06.06,0,0,0-.061.061c.061,0,.122,0,.122.061a1.873,1.873,0,0,1-.182.791,1.1,1.1,0,0,0-.122-.669h0c.061.061-.182.669-.182.791a2.187,2.187,0,0,0-.122-.669c0,.122-.182.608-.182.73a2.161,2.161,0,0,0-.122-.608c0,.182-.182.608-.182.73,0-.122-.122-.426-.122-.608a3.209,3.209,0,0,0-.182.73,3.277,3.277,0,0,0-.182-.608,3.741,3.741,0,0,0-.182.669c0-.122-.243-.669-.182-.791.061-.061.243-.061.3-.061v-.061c0-.061.243-.061.3,0v-.061a3.053,3.053,0,0,1-.73-.122c0,.061-.061.182-.061.243H62.1a5.482,5.482,0,0,0-.122.791c0-.122-.3-.608-.243-.852,0-.061.122,0,.243,0V53.53c-.122-.061-.182-.061-.3-.122a.772.772,0,0,0-.061.365.06.06,0,0,1,.061.061,1.81,1.81,0,0,0,0,.852c0-.122-.365-.547-.3-.912,0-.061.122,0,.182,0a.771.771,0,0,0-.061-.365c-.061-.061-.122-.061-.182-.122a1.88,1.88,0,0,0-.122.487,4.717,4.717,0,0,1-.061-.547c-.061,0-.122-.061-.182-.122a2.258,2.258,0,0,0-.122.547c0-.061-.061-.426-.122-.73-.061,0-.061-.061-.122-.061a3.741,3.741,0,0,0-.182.669,6.86,6.86,0,0,1-.122-.852,3.018,3.018,0,0,0-.182.791,6.774,6.774,0,0,1-.122-1.034h0c-.061,0-.061-.061-.122-.061-.061.122-.122.3-.182.426l.122.122a2.1,2.1,0,0,0,.243.852c0-.122-.487-.426-.487-1.034h.061c0-.182-.061-.426,0-.547l-.182-.182a1.684,1.684,0,0,0-.3.487.06.06,0,0,0,.061.061,2.68,2.68,0,0,0,.182.852c0-.061-.061-.122-.122-.182a4.04,4.04,0,0,0-.182-.912c0-.061.061.061.122.122a1.35,1.35,0,0,1,.061-.547.46.46,0,0,1,.243.061c-.061-.061-.122-.122-.122-.182l-.3.3v-.122c.061-.122.061-.3.122-.365H59.3a.223.223,0,0,1-.061-.182.131.131,0,0,0-.122.122A.335.335,0,0,1,59,51.218Zm5.6,2.251s.061-.3.122-.243a2.282,2.282,0,0,1,0,.912A1.419,1.419,0,0,0,64.594,53.469Zm-.243.365s.122-.3.122-.243c.122.243-.061.791-.061.912A1.712,1.712,0,0,0,64.351,53.834Zm-.182.243s.122-.3.182-.182c.122.243-.122.791-.182.912A2.648,2.648,0,0,0,64.168,54.077Zm-.243.243s.182-.243.182-.182c.061.3-.243.791-.243.912A1.694,1.694,0,0,0,63.925,54.32Zm-.365.182s.182-.243.182-.182c.061.3-.3.791-.365.912A1.5,1.5,0,0,0,63.56,54.5Zm-.182-.061c.061.182-.243.669-.3.73.122-.182.061-.608.122-.608C63.134,54.564,63.377,54.381,63.377,54.442Zm-.426.182c0,.122-.243.487-.243.608.061-.122,0-.487.061-.547C62.769,54.625,62.951,54.564,62.951,54.625Zm-.426.122s-.182.3-.243.426c0-.061-.061-.426,0-.487A1.38,1.38,0,0,1,62.526,54.746ZM61,54.625c0-.122-.487-.426-.487-1.034,0-.061.243.182.243.182A5.067,5.067,0,0,0,61,54.625Zm-.061-.973c0-.061.3.122.3.122a1.767,1.767,0,0,0,.122.852C61.37,54.5,60.944,54.138,60.944,53.651Zm-1.156,0c0-.122-.487-.426-.426-1.095,0-.061.182.243.182.243A5.066,5.066,0,0,0,59.788,53.651ZM56.2,46.413a8.152,8.152,0,0,0,1.217-.061c.061,0,.122-.061.182-.061v.243a1.226,1.226,0,0,1-.669.182,3.986,3.986,0,0,1-.852,0C56.139,46.6,56.139,46.474,56.2,46.413Zm-.122.3.061.061a4.554,4.554,0,0,0,1.277-.122A.223.223,0,0,0,57.6,46.6v.243a2.965,2.965,0,0,1-.669.243,3.985,3.985,0,0,1-.852,0l.122.182a4.554,4.554,0,0,0,1.277-.122.223.223,0,0,0,.182-.061v.182a2.435,2.435,0,0,1-1.521.243l.122.182a3.055,3.055,0,0,0,1.277-.122.223.223,0,0,0,.182-.061v.182a3.012,3.012,0,0,1-.791.243,3.438,3.438,0,0,1-.791,0l.122.182a3.442,3.442,0,0,0,1.338-.122.223.223,0,0,0,.182-.061v.182a1.98,1.98,0,0,1-.852.243,2.931,2.931,0,0,1-.73,0l.122.182a3.248,3.248,0,0,0,1.338-.122c.061,0,.122,0,.122-.061v.182a1.98,1.98,0,0,1-.852.243,2.931,2.931,0,0,1-.73,0l.122.182a2.485,2.485,0,0,0,1.338-.182c.061,0,.122,0,.122-.061v.182a5.353,5.353,0,0,1-.912.3,2.453,2.453,0,0,1-.669,0l.122.182a2.8,2.8,0,0,0,1.4-.182c.061,0,.122,0,.122-.061v.182a2.606,2.606,0,0,1-.973.3,2.465,2.465,0,0,1-.669,0l.122.182a3.7,3.7,0,0,0,1.4-.182c.061,0,.061,0,.122-.061v.182a2.917,2.917,0,0,1-1.034.3,1.654,1.654,0,0,1-.547,0A4.787,4.787,0,0,1,56.078,46.717Zm-.365,5.84h0V49.15a6.646,6.646,0,0,0,.3,1.034h-.061l.122.182a4.018,4.018,0,0,0,1.46-.182c.061,0,.061,0,.122-.061v.182a3.248,3.248,0,0,1-1.095.3,2.039,2.039,0,0,1-.608,0l.122.182a4.018,4.018,0,0,0,1.46-.182c.061,0,.061,0,.122-.061v.182a7.7,7.7,0,0,1-1.095.365,1.654,1.654,0,0,1-.547,0l.122.182a3.086,3.086,0,0,0,1.46-.243c.061,0,.061,0,.122-.061v.182a4.24,4.24,0,0,1-1.156.365,1.654,1.654,0,0,1-.547,0l.122.182a3.463,3.463,0,0,0,1.521-.243c.061,0,.061,0,.122-.061v.182a4.037,4.037,0,0,1-1.217.365c-.182,0-.365.061-.487,0l.122.182a3.211,3.211,0,0,0,1.521-.243c.061,0,.061,0,.122-.061v.182a3.1,3.1,0,0,1-1.277.365,1.3,1.3,0,0,1-.487,0l.122.182a3.211,3.211,0,0,0,1.521-.243c.061,0,.061,0,.122-.061v.182A3.117,3.117,0,0,1,56.5,52.8c-.122,0-.3.061-.426,0l-.061.122a3.593,3.593,0,0,0,1.582-.243c.061,0,.122,0,.122-.061a.465.465,0,0,1,.122.3h0L57.72,52.8v.182H57.6v.061h0c-.243.122-.487.182-.73.3a3.368,3.368,0,0,0-1.095.122l.122.182a3.368,3.368,0,0,1,1.095-.122c.243-.061.426-.182.669-.243v.122c-.182.061-.426.182-.608.243a6.857,6.857,0,0,1-1.095.182l.122.182a6.856,6.856,0,0,0,1.095-.182,4.194,4.194,0,0,0,.608-.243l.061.122c-.547.3-1.217.182-1.825.365l.122.182c.487-.122,1.034-.122,1.521-.243.122-.061.243-.061.3-.182l.061.182a3.542,3.542,0,0,1,0,1.156,19.329,19.329,0,0,1-2.007.547H55.9a10.948,10.948,0,0,0-.243-2.251v-.912Zm-.061,3.163c-.182.061-.365.061-.487.122a9.8,9.8,0,0,1-2.312,0c-.122,0-.243-.061-.365-.061a8.445,8.445,0,0,1,.061-1.642l.122.182a22.433,22.433,0,0,0,2.859.061l-.122-.182a5.719,5.719,0,0,1-1.764,0c-.365-.061-.73,0-1.095-.061a1.776,1.776,0,0,1,.122-.547h0a7.987,7.987,0,0,1,1.7-.061,3.7,3.7,0,0,0,1.156.061A15.71,15.71,0,0,1,55.652,55.72Zm-1.277-2.8a8.549,8.549,0,0,0-1.764,0h0a6.965,6.965,0,0,1,1.947.061,4.309,4.309,0,0,0,.852.061h0A5.357,5.357,0,0,0,54.375,52.921Zm1.034.182h0a3.323,3.323,0,0,1-1.095-.061,8.122,8.122,0,0,0-1.217,0h1.4A4.6,4.6,0,0,0,55.409,53.1Zm-2.494-.061h0Zm1.521.182a5.232,5.232,0,0,0,.973.061h0a3.7,3.7,0,0,1-1.156-.061,7.428,7.428,0,0,0-1.642.061h0A6.127,6.127,0,0,1,54.435,53.226Zm-.061.122a2.968,2.968,0,0,0,1.034.061h0a4.093,4.093,0,0,1-1.217-.061,6.758,6.758,0,0,0-1.582.061h0A17.094,17.094,0,0,1,54.375,53.347Zm1.034-.791h-.547A1.654,1.654,0,0,0,55.409,52.556Zm-.791.182a3.438,3.438,0,0,0,.791,0h-.973c-.608-.061-1.217-.061-1.825-.061h0A11.079,11.079,0,0,1,54.618,52.739Zm-4.2-.791a9.029,9.029,0,0,0,2.372.608h-.487v1.034l-.061-.122a1.128,1.128,0,0,1-.426-.122,6.416,6.416,0,0,0-1.156-.3c-.122,0-.182-.061-.3-.122,0-.061,0-.061.061-.122A3.974,3.974,0,0,1,50.421,51.948Zm-.547-11.193c.061,0,.122.061.182.061a.5.5,0,0,0,.243.365,2.813,2.813,0,0,0-.243,1.582,4.013,4.013,0,0,1-.669-.243c0-.061,0-.061-.061-.061C49.082,42.033,49.508,41.181,49.873,40.756Zm-.547,11.5h0l.061-.061v-.912a3.042,3.042,0,0,0,.973.669h-.243v.791a5.576,5.576,0,0,0-.122,2.433l.3-.061a7.053,7.053,0,0,1,.122-2.19l.061.122c.608.182,1.277.365,1.947.547a7.052,7.052,0,0,0-.122,2.19c-.73-.182-1.4-.365-2.129-.608l.061.182A1.9,1.9,0,0,1,49.2,54.5h0C49.082,53.956,48.961,52.678,49.326,52.252Zm2.129,3.406a10.155,10.155,0,0,1-1.217-.365C50.6,55.415,51.029,55.537,51.455,55.659ZM41.3,50.732l.122-.912c.061-.669.426-.791.973-.912,0,0,.487-.182.608-.243.061,0,2.312.426,2.433.487.182.3.3.547.487.852h0l.061.122.182.365h0l.122.243a2.43,2.43,0,0,1,.365.973h0A9.967,9.967,0,0,1,44.094,54.2c-.547.3-1.4-.122-2.616-1.217a1.161,1.161,0,0,1-.365-.973A9.227,9.227,0,0,1,41.3,50.732ZM31.2,46.109a1.837,1.837,0,0,1,1.217.243,5.569,5.569,0,0,1,2.068,3.406c.487,2.19.061,4.136-1.034,4.684h-.061c-.061.061-.122.061-.243.061-1.277.3-2.737-1.338-3.285-3.711C29.374,48.542,29.921,46.413,31.2,46.109ZM27.61,46.6h.122c.061.122.061.3.122.487a9.157,9.157,0,0,0-.608,1.034,3.986,3.986,0,0,0,0-.852A1.827,1.827,0,0,1,27.61,46.6Zm-.365.182c0,.061-.061.061-.061.122v-.061ZM26.454,48.3a9.006,9.006,0,0,0,.487-.791.772.772,0,0,1-.061.365C26.819,48.177,26.7,48.238,26.454,48.3Zm-.487,2.676a2.575,2.575,0,0,1-.426.3,4.593,4.593,0,0,0,.669-.852l-.182-.3c.547-.73,1.156-1.7,1.886-2.8,0,.061,0,.061.061.122h0a.607.607,0,0,0,.243.3V47.69l.061.061a38.27,38.27,0,0,1-2.19,3.285Zm.73,0-.061-.122a1.851,1.851,0,0,1-.487.487l-.061-.122c.669-.912,1.521-2.19,2.433-3.65a2.056,2.056,0,0,1,.73-.365c-.547.852-1.034,1.642-1.521,2.372-.061,0-.122-.061-.243-.061l.122.182A7.726,7.726,0,0,1,26.7,50.975Zm.061.426.122-.122-.061-.122a7.025,7.025,0,0,0,.912-1.217h0c.122,0,.243.061.365.061A4.911,4.911,0,0,1,26.758,51.4Zm1.521-1.642a.865.865,0,0,1-.365-.122c.487-.73.973-1.521,1.521-2.433a.366.366,0,0,0,.061.243h0a.212.212,0,0,0,.061.122.772.772,0,0,0-.061.365C29.07,48.663,28.644,49.211,28.279,49.758Zm1.156.487v.122c-.122.061-.182.122-.3.122A1.327,1.327,0,0,0,29.435,50.245Zm-5.292-1.277ZM8.57,49.15l.3-.243.243.122-.182.243H8.57Zm-.122.73h-.3V49.7l.3-.243.243.122ZM9,50.367l-.3-.243v-.182H9l.182.243Q9.178,50.275,9,50.367Zm-.182-.547.061-.3.608-.426a1.036,1.036,0,0,1,.426.243l-.365.487h-.73Zm1.947-.061c-.061.122-.487.243-.487.243L9.6,49.88a6.549,6.549,0,0,1,.669-.487s.487.061.608.061S10.821,49.7,10.76,49.758Zm.669-.608c-.061.122-.487.243-.487.243l-.73-.122a2.689,2.689,0,0,1,.487-.547h.608C11.429,48.724,11.551,49.028,11.429,49.15Zm.243-.852-1.095-.122-.426.182h.122l.608-.122a1.05,1.05,0,0,0-.243.182.373.373,0,0,1,.061.365c-.061.122-.487.243-.487.243l-.669-.122a1.05,1.05,0,0,1,.182-.243c-.365-.061-.791-.243-.608-.365a5.553,5.553,0,0,1,1.034-.487l.608-.122-.669.365.608.061c.122-.122.243-.3.426-.3.243-.061.912-.061.912.061v-.061c.243,0,3.467-.669,6.2-1.277v.182c-1.217.243-2.494.547-3.589.791l-.3.243h0c.73-.182,1.582-.365,2.433-.547l.061-.061H16.9c.426-.122.852-.182,1.338-.3v.182c-.365.061-.73.182-1.156.243l-.122.182.243.122-.122.061.182.122-.243.182s-.608-.182-.73-.243c-.061-.061.122-.243.3-.426-.547.122-1.095.243-1.582.365h.061l-.669.3h.669a3.064,3.064,0,0,1-.912.3c-.243,0-.912-.122-.912-.243a7.053,7.053,0,0,1-.912.182v-.182c.061,0,.547-.122,1.217-.243.122-.061.243-.182.365-.243-.973.182-1.7.365-1.764.365v-.061A3.606,3.606,0,0,1,11.672,48.3Zm1.764.669H12.159c.061.122.061.182.122.3-.243-.061-.426-.182-.3-.3a5.553,5.553,0,0,1,1.034-.487l.608-.122-.487.365.669.061Zm.426,0Zm33.456,23.48a35.4,35.4,0,0,1-33.274-23.48A34.964,34.964,0,0,1,18.3,47.873v1.7c0,1.4,2.129,2.616,5.84,3.406a.06.06,0,0,0,.061.061.4.4,0,0,0,.365.061,28.405,28.405,0,0,0,2.737-1.4c.669-.365,1.46-.73,2.129-1.095,0,.122.061.182.061.3.608,2.494,2.251,4.258,3.65,3.954.061,0,.182-.061.243-.061h0a29.373,29.373,0,0,1,7.3-2.737,1.438,1.438,0,0,0,.487,1.156c.852.791,2.129,1.7,2.981,1.217a8.572,8.572,0,0,0,2.676-2.676,1.712,1.712,0,0,0-.061-.487h2.19v.852a2.638,2.638,0,0,0-.3,1.4V54.2h.061c0,1.156,2.312,2.068,5.292,2.068S59.3,55.355,59.3,54.2h-.061v-.365a6.473,6.473,0,0,0,2.129,1.4c2.555.912,3.285-.061,3.711-.669a4.089,4.089,0,0,0,.365-.73,17.211,17.211,0,0,0,7.482,1.4,24.045,24.045,0,0,0,3.041-.182,33.8,33.8,0,0,1-60.343-6.144h-.547a34.332,34.332,0,0,0,61.559,6.022,9.444,9.444,0,0,0,1.277-.243A35.309,35.309,0,0,1,47.318,72.448ZM58.754,52.313Zm2.8-16.181a34.814,34.814,0,0,1-6.022-.608c-.122.061-.182.182-.3.243a32.714,32.714,0,0,0,6.509.73A.434.434,0,0,0,61.552,36.133Zm-2.92,16.12c-.182.061-.3.243-.487.3l.122.182a3.374,3.374,0,0,0,.487-.365h0C58.693,52.252,58.633,52.191,58.633,52.252ZM57.6,41.85l-1.582.365A12.046,12.046,0,0,0,57.6,41.85Zm0-1.642a13.778,13.778,0,0,1-3.224.365c.061.122.122.182.122.3a12.9,12.9,0,0,0,3.163-.365Zm3.467-4.562a17.346,17.346,0,0,1-2.981-.243l-.061.243a21.45,21.45,0,0,0,3.285.243A.475.475,0,0,0,61.066,35.646Zm-.73-.487c-.365-.061-.73-.061-1.156-.122l-.061.243c.547.061,1.095.122,1.582.182C60.64,35.281,60.457,35.22,60.336,35.159Zm-2.8,6.57-1.521.365A7.983,7.983,0,0,0,57.538,41.729Zm3.163.487a12.722,12.722,0,0,1-1.825.669A3.472,3.472,0,0,0,60.7,42.215Zm-3.467-3.832Zm.426,3.589-1.642.365A7.966,7.966,0,0,0,57.659,41.972Zm-1.338.608h0a3.684,3.684,0,0,0,1.4-.3Zm-.182-.122h0a10.444,10.444,0,0,0,1.582-.3Zm-25.244,20.2,1.521-2.372.912.608.243-.365-2.251-1.46-.243.365.912.608-1.521,2.372ZM71.346,39.539a.9.9,0,0,0,.122.547l.182-.122c0,.061,0,.061.061.122l.122-.061v.061l.3-.122a2.519,2.519,0,0,1-.122-.852h-.3v.122h-.122v.122h-.182Zm1.034,1.095c-1.156.061-1.886.243-1.582.547l.061.061C71.65,41.242,72.319,40.938,72.38,40.634ZM68.426,57.605a.667.667,0,0,1-.061.912.871.871,0,0,1-.669.3l.365.365a1.812,1.812,0,0,0,.669-.426.994.994,0,0,0,0-1.46.982.982,0,0,0-1.521.122l-.547-.547.73-.73-.3-.3-1.034,1.034,1.217,1.156C67.635,57.362,68.122,57.3,68.426,57.605Zm2.92-20.013-.182-.365H70.8l.182.365Zm-5.84,22.142a1.091,1.091,0,0,0,.3-.426,2.308,2.308,0,0,1,0,1.582l.426.061a2.574,2.574,0,0,0-.365-2.494,1,1,0,0,0-1.521-.243.921.921,0,0,0-.182,1.338A.968.968,0,0,0,65.506,59.734Zm-.852-1.156a.577.577,0,0,1,.791.122.316.316,0,0,1,.122.243.776.776,0,0,1-.3.426.5.5,0,0,1-.73-.061A.505.505,0,0,1,64.655,58.579ZM47.44,31.205c-.243,0-.487-.061-.547-.3,0-.061,0-.061-.061-.122.061.061.061.122.122.122.182,0,.3.426.608.122h0a1.6,1.6,0,0,0,.608-.973.941.941,0,0,1,.182-.487s.061.243-.061.365.182-.182-.182.487c-.061.122-.122.182-.122.243l.122-.122c.3.3.426-.122.608-.122h.061v-.061a.461.461,0,0,1,.122-.243v-.426c0-.122.243-.182.365-.243a3.336,3.336,0,0,1-.791,0s-.426-.061-.487-.061a.06.06,0,0,1-.061.061l-.3-.182a1.33,1.33,0,0,0-.3-.182,2.76,2.76,0,0,1-.182.487.623.623,0,0,1-.3.365c-.061,0-.122.061-.182.061l.061.061v.426c-.061-.182-.122-.426-.122-.426l-.122-.122h-.061a2.635,2.635,0,0,0-.061-.3.388.388,0,0,0,.365,0,.753.753,0,0,0,.122-.182l.182-.608h-.061c0-.182-.243-.365-.547-.487,0,.061.061.122.061.182.061.365,0,.426-.182.547l-.182-.791c-.365-1.521-.791-2.8-1.156-3.893a12.009,12.009,0,0,1-.791-3.285V19.952a.364.364,0,0,0,.182-.365.335.335,0,0,0-.182-.3V16.667a1.431,1.431,0,0,0,.365-1.034,1.684,1.684,0,0,0-.182-.791A21.854,21.854,0,0,1,47.2,14.66a22.363,22.363,0,0,1,20.5,13.5l.487-.182A22.722,22.722,0,0,0,47.258,14.173a16.649,16.649,0,0,0-3.041.243v-.426a5.665,5.665,0,0,0-3.285,0h-.182v.791a1.9,1.9,0,0,0-.3.608A22.952,22.952,0,0,0,26.393,28.225l.487.182a22.209,22.209,0,0,1,13.565-12.47,1.2,1.2,0,0,0,.3.852v2.737a.316.316,0,0,0-.122.243.393.393,0,0,0,.122.3V21.29a12.009,12.009,0,0,1-.791,3.285c-.243.73-.487,1.521-.791,2.433h-.061l-.061.243-.426,1.825h0c-.182,1.034-.365,2.19-.487,3.467-.426-.061-.912-.122-1.4-.182v.3c.365.061.669.061,1.034.122-.061,0-.182.061-.243.061l-.791.365v.365l.852-.365c.122-.061.3-.061.487-.122a5.233,5.233,0,0,1-.061.973c-.061.061-.061.182-.122.243h0v.061a16.292,16.292,0,0,0-.73,1.46l-.243-.243c-.061,0-.182.061-.243.061.73-1.338,1.156-2.251,1.217-2.312l-.182-.061c-.243.487-.669,1.338-1.277,2.433a.223.223,0,0,0-.182.061l.061.122c-.182.3-.365.669-.547,1.034a1.684,1.684,0,0,1-.547-.061c.426-.791.791-1.46,1.034-2.007h-.182c-.3.608-.73,1.46-1.217,2.372h.182c.061-.122.122-.182.182-.3l.182.243c.061,0,.061,0,.122.061h.669l-.182-.3c.182-.3.3-.608.487-.852l.061.061a1.776,1.776,0,0,0,.547-.122c-.182.365-.426.791-.669,1.217h.122v.122c.243-.426.487-.912.669-1.277l.243.243v.122a1.327,1.327,0,0,0-.3.243l.122.182c-.122.243-.3.547-.426.852l-.061-.122c-.061,0-.122.061-.182.061v.487h.061a.06.06,0,0,1-.061.061v.426c.122-.182.182-.365.3-.547.061,0,.061,0,.122-.061l-.061-.122a1.525,1.525,0,0,1,.243-.426c0,.061.061.122.122.182h0l.061.061h.122a2.966,2.966,0,0,0-.182.426c-.061.061-.122.122-.122.182v.061c-.122.182-.182.365-.3.547-.122,0-.182-.061-.3-.061l.182.3-.182.365V39.9a2.841,2.841,0,0,0,.3-.608c.122,0,.3.061.426.061-.669,1.277-1.338,2.433-1.886,3.467H35.7c.669-1.156,1.277-2.312,1.886-3.406.122,0,.3.061.426.061-.669,1.277-1.277,2.372-1.825,3.346h.243c.547-.912,1.095-1.947,1.7-3.1v.912c-.122.243-.243.426-.365.669a.6.6,0,0,0-.547.608c0,.061.061.122.061.182h0a5.349,5.349,0,0,1-.365.608h.061v.3l.365-.73a1.613,1.613,0,0,0,.3.365c0,.061-.061.061-.061.122v.061c-.182.061-.426.122-.608.182v.3a31.023,31.023,0,0,1,5.353-1.095v-.3a3.053,3.053,0,0,0-.73.122l.73-.73V41.06c-.365.365-.669.669-1.034.973l-1.095.182c.608-.547,1.4-1.217,2.129-1.947v-.243c-.912.852-1.764,1.7-2.433,2.251-.243.061-.547.122-.791.182v-.243a29.1,29.1,0,0,0,3.285-2.859v-.243a21.212,21.212,0,0,1-3.285,2.859V41.3a26.2,26.2,0,0,0,3.285-2.92V38.14a23,23,0,0,1-3.285,2.92v-.669a29.407,29.407,0,0,0,3.285-2.981v-.243a32.615,32.615,0,0,1-3.285,3.041v-.669A44.051,44.051,0,0,0,42.391,36.5v-.426h-.426l-.122-.122-.122.122c-.243,0-.547-.061-.791-.061h0a14.81,14.81,0,0,1-1.886-.365l-.182-.061v6.874c-.122,0-.182.061-.3.061V34.794a7.391,7.391,0,0,0,3.893.852V31.388h0a5.262,5.262,0,0,1-.426-.608,2.966,2.966,0,0,1-.182-.426,4.05,4.05,0,0,1-.243-1.886v-.122a2.176,2.176,0,0,1,1.034-1.582,1.55,1.55,0,0,1,1.46,0A3.027,3.027,0,0,1,45.372,28.1c.061.122.061.182.122.3a3.521,3.521,0,0,1,.182,1.947h0a1.128,1.128,0,0,1-.122.426,3.612,3.612,0,0,1-.243.487h1.582v-.182a1.142,1.142,0,0,1,1.338.182h.608a3.1,3.1,0,0,0-.669-.243h-.365l-.243-.061C47.379,31.266,47.44,31.205,47.44,31.205Zm0-1.642c.061-.3.243.912.608.912,0,0-.061.182-.182.182A1.541,1.541,0,0,1,47.44,29.563Zm-9.976,6.448h0c-.061-.061-.061-.122-.122-.182.243-.487.487-.912.669-1.338,0,.061.061.061.061.122v.669c-.122.243-.3.547-.487.912A.753.753,0,0,1,37.464,36.011Zm.608.365h0a.461.461,0,0,0-.243-.122c.061-.182.182-.3.243-.487Zm-.669.669h0a1.068,1.068,0,0,1,.3-.243h0a.865.865,0,0,1,.365-.122v.061l-.182.365a.212.212,0,0,0-.122.061c-.061,0-.061-.061-.122-.061C37.525,37.106,37.464,37.045,37.4,37.045Zm.547.365Zm-.426,1.642c-.122,0-.3-.061-.426-.061.061-.122.122-.182.182-.3,0,.061.061.061.061.122a.316.316,0,0,0,.243-.122.366.366,0,0,0,.061.243C37.586,38.931,37.586,38.992,37.525,39.052Zm.182,0Zm.061-.912Zm-.061-.122-.061.061h-.061a1.33,1.33,0,0,1,.182-.3.316.316,0,0,0,.243-.122h.061a1.035,1.035,0,0,1-.061.426c-.061.122-.061.243-.122.3a.131.131,0,0,0-.122-.122C37.768,38.079,37.707,38.079,37.707,38.018Zm.122.3h0l-.061-.061A.06.06,0,0,1,37.829,38.322Zm.243.852c-.061,0-.182-.061-.243-.061a.84.84,0,0,0,.182-.243c0,.061.061.122.061.182v.122Zm0-.426Zm0,4.076c-.061,0-.122.061-.182.061l-.061-.061c.061-.122.182-.3.243-.426Zm0-.852a6.634,6.634,0,0,0-.365.669l-.061-.061c-.122-.061-.182-.182-.3-.243h0v-.061a2.645,2.645,0,0,1,.243-.426.36.36,0,0,1,.426-.061v.182Zm-.122-.608h0L38.133,41v.608Zm1.034-5.17c.182.061.487.122.73.182l-.73.791Zm0,1.156.973-.973c.182.061.365.061.608.122l-1.521,1.521v-.669Zm0,.852a22.432,22.432,0,0,0,1.7-1.7c.182,0,.426.061.608.061-.791.791-1.886,1.886-2.312,2.251V38.2Zm0,.852c.487-.365,1.886-1.764,2.555-2.433.243,0,.426.061.669.061-.852.852-2.494,2.555-3.163,3.041v-.669Zm.3-11.558a7.559,7.559,0,0,0,1.886,1.095,3.683,3.683,0,0,0,.122,1.825,10.366,10.366,0,0,1-2.372-1.521C38.985,28.772,39.228,27.8,39.289,27.495Zm1.217.426c.243.061.547.061.852.122a.223.223,0,0,1-.061.182.772.772,0,0,1-.365-.061A3.489,3.489,0,0,0,40.506,27.921Zm.973,2.92c0,.061,0,.061.061.122a2.364,2.364,0,0,1-.912-.122,2.179,2.179,0,0,1-.669-.243h0v.365c.061.061.182.061.3.122h.122a9.228,9.228,0,0,0,1.277.182l.122.182a3.368,3.368,0,0,1-1.095-.122,2.179,2.179,0,0,1-.669-.243v.365c.061.061.182.061.243.122h.122a8.883,8.883,0,0,0,1.338.182l.122.182a3.368,3.368,0,0,1-1.095-.122,3.429,3.429,0,0,1-.73-.243v.365c.061,0,.182.061.243.061h.122a10.1,10.1,0,0,0,1.338.182l.122.182a3.368,3.368,0,0,1-1.095-.122A2.179,2.179,0,0,1,40.08,32v.365c.061,0,.122.061.243.061h.122a10.1,10.1,0,0,0,1.338.182l.122.182a3.368,3.368,0,0,1-1.095-.122c-.243-.061-.487-.122-.669-.182v.365c.061,0,.122.061.182.061h.122a5.067,5.067,0,0,0,1.338.182l.122.182a3.368,3.368,0,0,1-1.095-.122c-.243-.061-.487-.122-.669-.182v.365c.061,0,.122.061.182.061h.122a3.548,3.548,0,0,0,1.4.182l.122.182a3.368,3.368,0,0,1-1.095-.122c-.243-.061-.426-.122-.669-.182v.365c.061,0,.061.061.122.061h.122a3.548,3.548,0,0,0,1.4.182l.122.182c-.365-.061-.73-.061-1.095-.122-.243-.061-.426-.122-.669-.182v.365h.182a5.182,5.182,0,0,0,1.4.243l.122.182a6.7,6.7,0,0,1-1.095-.122c-.182-.061-.426-.122-.608-.182v.365h.182a5.63,5.63,0,0,0,1.4.243l.122.182c-.365-.061-.73-.061-1.095-.122a2.161,2.161,0,0,0-.608-.122V35.1c-.852-.243-1.277-.487-1.277-.669h-.547a29.478,29.478,0,0,1,.487-4.988,5.382,5.382,0,0,0,1.034.73v.061a.212.212,0,0,1,.122.061c.122.061.243.182.365.243-.182-.061-.365-.061-.487-.182h-.061v.365c.122.061.182.061.3.122H40.2a3.013,3.013,0,0,0,1.034.122C41.357,30.78,41.418,30.84,41.479,30.84Zm.426-7.421.122.182h-.852c0,.122-.061.182-.061.3a3.427,3.427,0,0,0,.791,0l.122.182a4.6,4.6,0,0,1-.912-.061c0,.122-.061.182-.061.3.3,0,.547.061.852.061l.122.182a5.232,5.232,0,0,1-.973-.061c0,.122-.061.182-.061.3a4.6,4.6,0,0,0,.912.061l.122.182A5.9,5.9,0,0,1,40.992,25c0,.122-.061.182-.061.3a5.233,5.233,0,0,0,.973.061l.122.182a6.611,6.611,0,0,1-1.095-.061h0c0,.122-.061.182-.061.3a5.9,5.9,0,0,0,1.034.061l.122.182a6.612,6.612,0,0,1-1.095-.061.188.188,0,0,1-.122-.061c0,.122-.061.182-.061.3a5.566,5.566,0,0,1,1.034-.061l.122.182a6.612,6.612,0,0,1-1.095-.061c-.061,0-.122-.061-.182-.061a2.635,2.635,0,0,1-.061.3h0c.365.061.791.061,1.156.122l.122.182a6.611,6.611,0,0,1-1.095-.061c-.061,0-.122-.061-.243-.061,0,.122-.061.243-.061.365h.061a7.488,7.488,0,0,0,1.217.122l.061.122a.06.06,0,0,1-.061.061,5.9,5.9,0,0,1-1.034-.061c-.122,0-.182-.061-.3-.122,0,.122-.061.243-.061.365h.122c.365.061.669.061,1.034.122,0,.061-.061.122-.061.182a2.962,2.962,0,0,1-.73-.061c-.122-.061-.243-.061-.365-.122,0,.122-.061.182-.061.3a7.925,7.925,0,0,1-.912-.608c.243-.912.547-1.764.791-2.494a10.678,10.678,0,0,0,.852-3.406V20.378a.9.9,0,0,0,.426.061v1.521l-.182,1.095H41.9l.122.061h-.791c0,.122-.061.182-.061.3Zm1.764-7.543c-.365.608-.365.791-1.764.973v2.859c-.487-.061-.73-.122-.791-.122,0-.061-.061-.061-.122-.061v-2.8l-.061-.061a1.344,1.344,0,0,1,0-1.7l.061-.061v-.547c.182.061.547.122.852.182v.3c1.217,0,1.156.182,1.4.061A.591.591,0,0,1,43.669,15.876Zm.426-1.825a5.234,5.234,0,0,1-1.46.182,4.06,4.06,0,0,1-1.521-.182h0a6.111,6.111,0,0,1,1.521-.122,5.852,5.852,0,0,1,1.46.122Zm1.825,16.3a3.982,3.982,0,0,0-.3-1.886,1.068,1.068,0,0,0,.243-.3c.122.608.365,1.4.365,1.4v.061A1.007,1.007,0,0,1,45.919,30.354ZM32.172,63.506l.426.243.791-.669,1.217.608-.061,1.034.426.243.182-3.528-.3-.122Zm2.433-.3-.912-.426.973-.791Zm13.5-27.069.182-.365c-.061-.061-.182-.182-.122-.243a.354.354,0,0,0-.243-.487,5.742,5.742,0,0,0-.547-.182H45.615v.669a3.606,3.606,0,0,0,.973-.426v1.825h.3V36.8h.973a.659.659,0,0,1,.061-.365A.419.419,0,0,1,48.109,36.133Zm-.73.243c-.122-.3-.3-.487-.426-.791v-.608a3.011,3.011,0,0,0,.243.791C47.318,35.95,47.44,36.254,47.379,36.376Zm-.73.487V35.524l-.243.182a2.908,2.908,0,0,1-.73.3v.3a2.179,2.179,0,0,0,.669-.243v.122l-.669.669h.182l.487-.487v.487Zm.973-5.535.243-.182h-.122A.753.753,0,0,1,47.623,31.327Zm22.142,5.535h-.122c-.061.122-.122.3-.182.426a2.428,2.428,0,0,1-.243.791,2.069,2.069,0,0,0-.061.608,4.742,4.742,0,0,0,.547-1.521ZM50.238,31.631c0-.061.061-.061.061-.122a2.182,2.182,0,0,0-1.034-.912.393.393,0,0,1-.3-.122c-.061.3-.73.3-.912.243a2.575,2.575,0,0,1-.3.426l.061.061c.426,0,.243-.061.791.182a4.621,4.621,0,0,0,.669.243h.365l.061-.061a.89.89,0,0,0,.182-.487c0,.243.061.426.061.547h.3Zm19.891,7.482v.122h-.122v.122h-.182v.182a.9.9,0,0,0,.122.547l.182-.122c0,.061,0,.061.061.122l.122-.061v.061l.3-.122a2.519,2.519,0,0,1-.122-.852ZM63.012,61.559l.365-.365a2,2,0,0,1-.182,1.521l.426.122a2.761,2.761,0,0,0-.061-2.494,1.119,1.119,0,0,0-1.521-.426.988.988,0,0,0-.3,1.338A.973.973,0,0,0,63.012,61.559Zm-.73-1.277a.592.592,0,0,1,.791.182c.061.061.061.122.122.243a.776.776,0,0,1-.3.426.5.5,0,0,1-.73-.122A.487.487,0,0,1,62.282,60.282Zm-2.859,1.156,1.46,2.859.426-.182-1.46-2.859Zm-4.806,1.825-1.217.365.912,3.1,1.217-.365a1.621,1.621,0,1,0-.912-3.1ZM55.348,66l-.73.182-.669-2.312.669-.182a1.176,1.176,0,0,1,1.582.791A1.1,1.1,0,0,1,55.348,66ZM43.06,53.286v.426a.657.657,0,0,0,.426.182l-.122-.608A.276.276,0,0,1,43.06,53.286ZM76.395,39.235l-.487-.182-.122-.061a.892.892,0,0,0-.791,0l-.061.061c-.243.122-.365.061-.73-.061l-.3-.122a1.222,1.222,0,0,0-.912-.061l-.182.061c-.243.061-.3.061-.365,0h0a6.829,6.829,0,0,0-1.095-3.65.84.84,0,0,0-.243.182,6.053,6.053,0,0,1,1.034,3.346l-.182-.061v.061a1.155,1.155,0,0,0-.547.182,2.742,2.742,0,0,0,.182-.669l-.243-.061a7.376,7.376,0,0,1-.3.852c-.061,0-.061,0-.122-.061l-.243-.122h-.061c.122-.365.243-.669.365-1.034l-.182-.061a3,3,0,0,1-.365,1.034,1.309,1.309,0,0,0-.487,0,8.207,8.207,0,0,0,.487-1.46l-.182-.061a4.028,4.028,0,0,1-.608,1.642.06.06,0,0,0-.061.061c-.122.061-.182.122-.3.122v.3a.657.657,0,0,0,.426-.182.814.814,0,0,1,.852-.061l.182.122a.484.484,0,0,0,.669-.061c.3-.243.365-.243.669-.122l.243.061a.822.822,0,0,0,.547,0l.243-.061a1.239,1.239,0,0,1,.791.061l.3.122c.365.122.669.243.973.061l.061-.061c.182-.122.182-.122.547,0l.122.061.426.182a.749.749,0,0,0,.669.122h.122a1.712,1.712,0,0,1,.487-.061.548.548,0,0,1,.061-.3,2.282,2.282,0,0,0-.608.061h-.122A3.877,3.877,0,0,1,76.395,39.235ZM26.88,59.065l-.973-.973.73-.73.912.912.3-.3-.912-.912.669-.669.973.973.3-.3L27.61,55.78l-2.251,2.251L26.7,59.369Zm2.068,1.277a.532.532,0,0,1-.669,0,1.067,1.067,0,0,1-.365-.912l-.365.426a1.352,1.352,0,0,0,.487.791.887.887,0,0,0,1.277-.122c.669-.791-.426-1.642-.061-2.129a.405.405,0,0,1,.608,0,1.04,1.04,0,0,1,.365.73l.3-.426a1.115,1.115,0,0,0-.426-.608.821.821,0,0,0-1.217.122C28.34,58.883,29.374,59.8,28.948,60.343ZM49.2,64.236l.061,1.4L47.44,65.7l-.061-1.4h-.487l.122,3.224H47.5l-.061-1.4,1.825-.061.061,1.4h.487l-.122-3.224Zm-7,2.859.487.061.487-3.163-.487-.061Zm1.947-2.19c-.061.852,1.338,1.095,1.277,1.7,0,.182-.182.365-.547.365a1.023,1.023,0,0,1-.791-.547l-.061.608a1.2,1.2,0,0,0,.852.365.853.853,0,0,0,.973-.791c.061-1.034-1.338-1.095-1.277-1.764,0-.243.243-.365.547-.365a1.052,1.052,0,0,1,.73.365l.061-.547a1.643,1.643,0,0,0-.669-.3C44.642,64.114,44.216,64.418,44.155,64.9ZM72.441,40.634c.182.365-.547.73-1.4.791l.182.182c1.582,0,2.616-.426,2.616-.852.3.547-.912,1.095-2.433,1.095l.122.122c2.372.061,3.65-.547,3.771-1.034.243.669-1.521,1.277-3.467,1.338a.06.06,0,0,0,.061.061c3.163.122,4.745-.608,4.866-1.217.182.791-1.825,1.46-4.136,1.582a18.226,18.226,0,0,0,2.859-.182,4.11,4.11,0,0,0,1.642-1.582c-.3-.061-.547-.061-.852-.122A20.949,20.949,0,0,0,72.441,40.634Zm-32,22.75-.426-.122-.791,3.1,1.886.487.122-.426-1.4-.365ZM51.637,66.79l-.182-.973,1.277-.182-.061-.426-1.277.182-.122-.973,1.338-.182-.061-.426-1.825.3.487,3.163,1.825-.3-.061-.426Zm-13.687-4.2-.852-.3L36,65.331l1.034.365a.932.932,0,0,0,1.338-.426.832.832,0,0,0-.426-1.034h0a.615.615,0,0,0,.669-.487A.9.9,0,0,0,37.951,62.593Zm0,2.433c-.061.243-.3.426-.852.243l-.547-.182.365-.973.547.182C37.89,64.479,38.012,64.783,37.951,65.026Zm.243-1.4c-.122.3-.365.426-.791.243l-.3-.122.3-.912.426.122A.549.549,0,0,1,38.194,63.627Zm9.794-28.833c.061.182.365.547.365.669v.122l.122-.182h.061l-.122-.182.061-.061a2.377,2.377,0,0,1,.243-.3h-.73Zm-17.4,16.12c-.061.487.122.365.852.852l.122-.182a3.223,3.223,0,0,0-.547-.426.987.987,0,0,1-.426-1.034c.122-.365-.3-.487-.3-.487A2.376,2.376,0,0,1,30.59,50.914ZM22.5,46.6a6.856,6.856,0,0,1-1.095-.182,4.634,4.634,0,0,1-1.764-.791l.182.243a4.885,4.885,0,0,0,1.764.912h-.061l.182.3a1.1,1.1,0,0,1-.608-.122c-.487-.243-1.034-.243-1.46-.608l.122.243a6.251,6.251,0,0,0,2.494,1.156,11.718,11.718,0,0,0,1.217.3h-.061l.243.426h.3l-.182-.3a.456.456,0,0,0,.3.061,2.634,2.634,0,0,0-.3-.061l-.122-.122h-.061a2.645,2.645,0,0,1-.365-.426l-1.217-.487h-.122l-.243-.3c.061,0,.122.061.182.061.365.122,1.4.365,2.068.487-.061-.061-.122-.182-.182-.243Zm7.725,2.372-.365.182c0,.243-.122.3.122.243S30.225,48.968,30.225,48.968Zm.061-.426c0-.182-.122-.426-.061-.547s-.182-.061-.182-.061c-.122.608-.365.912-.182.852C30.1,48.724,30.286,48.724,30.286,48.542Zm-6.57.852-2.8-1.095c-.182-.061-.365.061-.547,0-.3-.122-.547-.061-.791-.3l.061.122a7.526,7.526,0,0,0,3.346,1.46,3.447,3.447,0,0,0,.973.122C23.96,49.637,23.9,49.515,23.717,49.393Zm.243.365c-.182,0,0,.061,0,0ZM7.536,43.919c.061.3,1.338.852,2.433.973v-.061h0a1.942,1.942,0,0,1-.669-.365l.608-.365h.061v-.3h0v-.243a.212.212,0,0,0-.122.061c-.3-.061-.791-.182-.791-.182l.608-.365h.243v-.061H9.422C8.509,42.945,7.475,43.493,7.536,43.919Zm1.277.669-.365-.122-.061-.122.3-.122.243.182A.875.875,0,0,1,8.813,44.588Zm.791-.73a1.089,1.089,0,0,1-.3.365l-.73-.182L8.449,43.8l.608-.243Zm-1.156-.669a.629.629,0,0,1,.243.061l-.122.3-.3.122-.061-.182Zm-.365.608.243.182a.454.454,0,0,1-.182.182l-.365-.122-.061-.122Zm5.9,2.19h0l-.061-.122c-.182.061-.365.061-.547.122h-.061c-1.642.365-3.346.73-4.5,1.034.122,0,.182,0,.243.061v-.061C9.178,47.021,11.551,46.534,13.984,45.987Zm17.762,1.642c-.365.061-.487.365-.3.243.182-.061.182-.243.365-.061s0,.3.365.487.73.182.669-.122c-.061-.243-.487-.426-.487-.426C32.05,47.629,32.111,47.568,31.746,47.629Zm-.3,1.034a.942.942,0,0,0-.487.73c-.061.487-.243.608,0,.852s.365.365.487.122c.182-.243.061-.487.061-.669-.061-.182.061-.487.061-.608A1.886,1.886,0,0,0,31.442,48.663Zm1.886.122c.122,0,.243-.061.243-.182s-.122-.182-.243-.182c-.182,0-.3.061-.3.182A.335.335,0,0,0,33.328,48.785ZM30.59,48.3l-.061.365c0,.182.122.3.182.122s.243-.487.182-.608C30.773,48.116,30.59,48.3,30.59,48.3Zm1.277-.852c.243,0,.3.061.426-.122.122-.122.122-.243,0-.243a.373.373,0,0,0-.365.061c-.061.061-.243.061-.3.061s-.182.122-.182.122C31.624,47.447,31.624,47.508,31.868,47.447Zm.182-.547a.341.341,0,0,0,.061-.365c-.061-.182-.182-.3-.3-.3s-.122.182-.061.365S31.929,46.9,32.05,46.9Zm-1.277.852c.122-.243.122-.487.243-.547.182-.061.547-.122.487-.243-.061-.182-.365-.243-.365-.243-.365.182-.669.547-.669.669C30.53,47.568,30.651,47.994,30.773,47.751Zm3.346,2.494c.182.182.365.487.243.061a4.947,4.947,0,0,1-.243-1.034l-.182.182a.181.181,0,0,0-.182.243A.81.81,0,0,0,34.118,50.245Zm16.12-19.891c.426-.487.061-.73.122-1.034s-.061-.243-1.46-.3-.608-.061-.669-.243,0-.243,0-.243a11.241,11.241,0,0,1-.791-1.156c-.182-.3-.122-.243-.061-.487s-.3.243-.608.3-.243.061-.3.487a.646.646,0,0,0,.061.487,1.545,1.545,0,0,1,.852.487.212.212,0,0,1,.061-.122l.182.3a2.414,2.414,0,0,0,.365.243l.122.061a2.793,2.793,0,0,1,.608.061,3.7,3.7,0,0,0,.852,0c.122,0,.243-.061.3.061.061-.061.061,0,.061.061a.223.223,0,0,1-.061.182.643.643,0,0,1-.365.547l-.122.122-.122.122a1,1,0,0,1,.547.3A.98.98,0,0,0,50.238,30.354ZM11.368,46.9h0c.73-.182,1.582-.365,2.433-.547l.061-.061h.061c.487-.122.912-.182,1.4-.3h-.608c-1.034.243-2.068.426-3.041.669ZM50.6,35.646l-.487-.243-.122.182.547.3Zm-1.034-6.2h-.122l-.243.243-.122.365h0l.061-.061.182-.182C49.447,29.745,49.508,29.685,49.569,29.441ZM24.142,32.726a13.639,13.639,0,0,0-5.11,1.7.84.84,0,0,1,.182.243,13.331,13.331,0,0,1,4.927-1.642Zm26.4,7.3h0Zm15.451,2.859c.243,0,.365.061.669.365a1.162,1.162,0,0,0,.852.426c-.122-.122-.182-.243-.3-.365a1.068,1.068,0,0,1-.3-.243,1.072,1.072,0,0,0-.912-.426c-.365,0-.669,0-.73-.243,0-.122-.061-.182-.122-.3a1.33,1.33,0,0,1-.182.3h0C65.081,42.885,65.689,42.885,65.993,42.885ZM24.082,40.269l-.122-.122H23.9C23.96,40.147,24.021,40.208,24.082,40.269Zm57.179-.182h-.3a2.634,2.634,0,0,1-.061.3q.365-.091.365,0Zm-30.536.182c0-.061-.061-.061,0,0l-.182-.061A.471.471,0,0,1,50.725,40.269Zm0,0a.223.223,0,0,1-.182-.061l-.061.3c.122,0,.182.061.3.061A.456.456,0,0,1,50.725,40.269Zm.365-4.988-.487-.243-.122.182.547.243Zm.426-.365-.487-.243-.122.182.547.243Zm2.19,18.8a5.233,5.233,0,0,0-.973-.061l.122.182a4.6,4.6,0,0,1,.912.061,7.965,7.965,0,0,0,1.7,0c0,.061.061.182,0,.243l-.061-.122c-.73.061-1.4,0-2.129,0a1.2,1.2,0,0,0-.669-.122l.122.182h.243c.122.061.3,0,.426.122.669,0,1.4.061,2.068,0l.061.122a.62.62,0,0,0-.122-.547c0-.061,0-.122-.061-.122l-.061.061A13.719,13.719,0,0,1,53.705,53.712Zm-7.6-1.582-.669-.547c-.061.061-.061.122-.122.243h0l.608.547C45.98,52.313,46.041,52.191,46.1,52.131Zm-.547-1.947.3-.122c-.182-.243-.3-.487-.426-.608C45.554,49.576,45.554,49.941,45.554,50.184Zm9.794,3.467a.316.316,0,0,0,.122.243A.316.316,0,0,0,55.348,53.651ZM31.32,52.435c-.061-.243.122-.3-.122-.547-.243-.3-.608-.487-.669-.182a.807.807,0,0,0,.243.608c.243.243,0,.3.365.426a1.88,1.88,0,0,0,.487.122C31.442,52.8,31.381,52.678,31.32,52.435Zm.3.426ZM43,52.5a1.511,1.511,0,0,0,1.156.061c.182-.061.3-.243.426-.365l.243-.243a.494.494,0,0,0,.243-.487,2.1,2.1,0,0,0-.061-.547v-.122c0-.122,0-.182-.061-.243.061,0,.182-.122.182-.122v-.061s0-.182-.122-.243c-.061-.061-.122-.061-.243,0a3.6,3.6,0,0,0-.243-.365,1.006,1.006,0,0,0-.791-.3h-.182a1.446,1.446,0,0,1-1.156-.182l-.365-.243.122.426a1.426,1.426,0,0,1-.243,1.034,2.7,2.7,0,0,0-.182.912A3.8,3.8,0,0,0,43,52.5ZM44.824,51.4h0c0,.182,0,.243-.122.243C44.764,51.583,44.764,51.462,44.824,51.4Zm-.547-1.521.061.061.182.243.122.182h0v.122A.8.8,0,0,0,44.277,50h-.061Zm-.487-.122h.182l-.061.122h-.182Zm.3.912v.182h0a1.6,1.6,0,0,1-.365.487,2,2,0,0,1-.852,0l-.122.3a1.511,1.511,0,0,0,1.156-.061s.547-.426.487-.791V50.61a1.88,1.88,0,0,1,.122.487h0a2.334,2.334,0,0,1-.669,1.095c-.122.061-.547-.182-.791-.365l-.243-.122c-.182-.061-.182-.182-.182-.365,0-.122.061-.3.061-.426v-.061a.763.763,0,0,1,.669-.608h0C43.486,50.245,43.973,50.367,44.094,50.671Zm-.852-.852h.243v.122A.223.223,0,0,0,43.3,50v-.182Zm-.608-.122c.122.061.182.061.3.122v.243h.122c-.122.061-.182.061-.243.122l-.243-.3C42.574,49.819,42.635,49.758,42.635,49.7Zm-.122.547.061.122a.212.212,0,0,0-.061.122l-.061-.061A.223.223,0,0,1,42.513,50.245Zm-.182.487.061.061v.061c0,.061-.061.122-.061.182h-.122A.465.465,0,0,1,42.33,50.732Zm-.182.608h.182a.366.366,0,0,0,.061.243c-.182-.061-.243-.182-.243-.243Zm3.467-.608.547-.243c0-.061-.061-.122-.061-.182l-.487.243A.114.114,0,0,0,45.615,50.732Zm-.608,1.582.487.547a.84.84,0,0,1,.243-.182l-.547-.487C45.068,52.191,45.007,52.252,45.007,52.313Zm-.426.3.365.608-.243.182-.365-.547a3.145,3.145,0,0,1-.791.365h.061l.182.852h-.061a1.35,1.35,0,0,0,.547-.061c.061,0,.122-.061.182-.122l-.243.061-.3-.791.3-.122.3.791c.182-.182.487-.426.73-.669l-.487-.547A.114.114,0,0,0,44.581,52.617Zm-2.007.608.182.182v-.243C42.574,53.165,42.513,53.1,42.574,53.226Zm7.239-.73c0-.061,0-.061-.061-.122l.061.122s0-.122-.061-.122h-.061c-.122-.061-.243-.061-.3-.122l.122.182C49.569,52.5,49.691,52.435,49.812,52.5Zm-3.771-1.338c.3.243.122.426-.122.426l.365.3c.122-.182.243-.3.243-.365a2.708,2.708,0,0,0-.3-.791l-.487.182A1.068,1.068,0,0,0,46.041,51.157Zm-14.417-.182c.182.182.487,0,.487,0l-.243-.243C31.564,50.792,31.442,50.792,31.624,50.975Zm18.127,1.4Zm10.584.3Zm-26.278-.852c-.182.122-.487.365-.365.487.061.122.3.061.3.061l.243-.3C34.3,51.887,34.24,51.7,34.058,51.826Zm-.122,1.217c-.3,0-.669.365-.791.487s-.3,0-.365,0c-.122,0-.426.608-.426.608a.844.844,0,0,0,.852,0c.487-.182.669-.122.73-.426C34.058,53.408,34.24,53.043,33.936,53.043ZM65.324,33.578c-.182.061-.669.182-1.277.3l.182.182c.547-.122.973-.243,1.156-.3Zm-32.6,19.709c.182,0,.3-.182.061-.182-.182-.061-.547-.182-.608-.061s.122.243.122.243Zm-.547-2.92c0-.182-.061-.365-.182-.365s-.182.182-.182.365.061.365.182.365C32.111,50.792,32.172,50.61,32.172,50.367Zm31.327.365Zm-.122.3.122.122v-.182C63.438,51.036,63.438,51.036,63.377,51.036Zm-29.5.487c.182.182.487,0,.487,0l-.243-.243C33.875,51.34,33.753,51.34,33.875,51.522ZM32.78,49.941c.3.182.122.487,0,.852s.3.487.3.487.061-.608.122-1.095-.182-.365-.912-.791l-.122.182C32.233,49.515,32.476,49.758,32.78,49.941Zm-.243,2.251c.061-.061.122-.122.061-.182h.061c.122,0,.182-.122.182-.243s-.061-.243-.182-.243-.182.122-.182.243a.223.223,0,0,0,.061.182c-.122-.061-.243.061-.365.061-.061.061-.243.061-.3.061s-.182.122-.182.122c.182.122.182.182.426.122S32.415,52.313,32.537,52.191Zm-.791,1.4c0,.182-.061.182,0,.243s.122.122.122.061c.061-.061,0-.182,0-.182V53.53a.212.212,0,0,0-.061-.122S31.746,53.408,31.746,53.591Zm30.78-1.46Zm-28.711-.973c.182,0,.3-.182.061-.182-.182-.061-.547-.182-.608-.061s.122.243.122.243ZM32.78,49.211l-.243-.243c-.243.061-.365.061-.182.243C32.476,49.393,32.78,49.211,32.78,49.211Zm.243,3.163c.122.122.487.365.426.122,0-.243-.122-.487-.061-.608s.426-.365.243-.487a.96.96,0,0,0-.426,0C32.963,51.766,32.9,52.252,33.024,52.374Zm32.057-.061Zm3.893-21.047C68.852,29.32,67.7,28.59,66.54,27.86l-1.277-.912c-1.7-1.4-6.387-1.521-9.489-.669a5.1,5.1,0,0,0-3.528,3.65A6.153,6.153,0,0,0,52,31.692a.875.875,0,0,0-.122.182,1.363,1.363,0,0,1-.608.426l.061.061a4.85,4.85,0,0,1,.365.487c-.061.061-.182.061-.3.122,0-.061-.122-.182-.3-.426-.182-.182-.243-.243-.243-.3v-.061c0-.122.122-.122.182-.182a1.021,1.021,0,0,0,.547-.365c-.182.061-.487.182-.669.243L50.664,32H50.6v1.825a4.9,4.9,0,0,1,1.521-.852v-.122h.061a4.768,4.768,0,0,0,.3.852l.243-.243a.212.212,0,0,0-.061-.122c.061,0,.122.061.182.061l.182-.182a4.192,4.192,0,0,1-.487-.182c-.061-.182-.061-.3-.122-.487a1.6,1.6,0,0,0,.912.426l-.182-.3a1.007,1.007,0,0,1-.73-.3c0-.182-.061-.365-.061-.547a2.146,2.146,0,0,0,.791.487l-.182-.365c-.182-.122-.426-.182-.608-.3V31.51a1.035,1.035,0,0,1,.061-.426h0l.061.061h0a2.472,2.472,0,0,0,.608.547l-.182-.3c-.182-.122-.3-.243-.487-.365v-.061c0-.182.061-.365.061-.547v0c.061.061.122.122.122.182v-.061l-.122-.122c0-.122.061-.243.061-.365A5.077,5.077,0,0,1,55.591,26.7v.061a7.378,7.378,0,0,1,.852-.3H56.5a4.538,4.538,0,0,1,1.825,0l.73.122v-.243l-.608-.122c-.122,0-.243-.061-.365-.061a16.03,16.03,0,0,1,1.7-.122l.061.122c.061.061.122.182.243.243,0,.061.061.182.061.243l.182.3a4.191,4.191,0,0,0-.182-.487h0l-.061-.061a.06.06,0,0,0-.061-.061c0-.061-.061-.061-.061-.122v.061a.84.84,0,0,1-.182-.243,9.753,9.753,0,0,1,4.745.852,5.855,5.855,0,0,0-3.163-.243h-.122c-.061-.061-.243,0-.243-.122l.122.182H61v.243h.243c.061.061.243.061.3.122l-.122-.182h0c.122,0,.243-.061.365-.061l.061.182a.131.131,0,0,1,.122.122l-.122-.365a4.962,4.962,0,0,1,3.285.608l.061-.122,1.217.852a4.792,4.792,0,0,1,1.764,1.521,4.028,4.028,0,0,1,.487,1.642,4.993,4.993,0,0,1-.122,1.7,1.272,1.272,0,0,1,.365-.243A5.624,5.624,0,0,0,68.974,31.266Zm-7.421-.791c.243-.669.3-1.095-.365-2.312L61,28.286c.669,1.217.608,1.521.365,2.129Zm-.669-1.642-.182-.365A2.025,2.025,0,0,0,60.883,28.833Zm-1.217-1.764-.182-.365h-.3l.182.365Zm-7.178,3.467ZM65.567,33.03l-.061-.182a8.684,8.684,0,0,1-1.947.487l.182.182A8.086,8.086,0,0,0,65.567,33.03Zm.973-.365.061.182c1.642-.547,1.582-2.433,1.582-3.163h-.243C67.939,30.354,68,32.179,66.54,32.665Zm-13.5-1.46-.182-.365c-.182,0-.243-.182-.365-.365A1,1,0,0,0,53.036,31.205Zm4.441-2.8a1.971,1.971,0,0,1-.547-.487,6.805,6.805,0,0,1,2.372-.547V27.13c-2.555.243-4.076,1.217-4.5,2.92l.182.061a3.281,3.281,0,0,1,1.764-2.068,2.82,2.82,0,0,0,.608.608Zm3.406.243h-.061c.061.061.061.182.122.243s.122.122.182.122Zm-4.258.487.122-.182a1.186,1.186,0,0,1-.365-.487l-.182.122C56.321,28.833,56.625,29.076,56.625,29.137Zm9,3.163-.122-.182a6.635,6.635,0,0,1-2.616.669c.122.061.182.122.3.182A5.31,5.31,0,0,0,65.628,32.3ZM56.99,28.833l.122-.182a1.709,1.709,0,0,1-.487-.487l-.182.122A4.26,4.26,0,0,0,56.99,28.833Zm-.608.365-.3-.426-.182.122.365.487Zm-32.239,9a.223.223,0,0,1-.182-.061v-.061h0a17.274,17.274,0,0,1-2.068-.487c.122.122.243.3.365.426h.061c.122.122.182.243.3.365.061-.061.122-.122.182-.122l-.243-.061c.182.061.365.061.547.122-.061.122-.182.182-.243.3a.548.548,0,0,1-.3-.061c.182.182.3.365.487.547l.061-.061a.772.772,0,0,1,.365.061l.182.365c-.122,0-.3-.061-.426-.061.122.122.243.3.365.426.182,0,.3.061.487.061v-.182l-.122-.243h-.243c.061-.122.061-.182.122-.3a.366.366,0,0,1,.243.061v-.122l-.122-.243h0c.061-.061.061-.182.182-.243h0V38.2Zm-.547.487h-.243c.061-.061.122-.182.182-.243l-.061-.061a.223.223,0,0,1,.182.061A.366.366,0,0,1,23.595,38.687ZM55.287,29.5l.182.365.182-.122-.182-.365Zm5.657-.608Zm2.8-.973h-.365l.182.365h.365Zm.122,1.034-.182-.3a2.975,2.975,0,0,0-1.4.487l.182.365A2.358,2.358,0,0,1,63.864,28.955Zm-.852-1.4a.316.316,0,0,0-.243.122l.182.365a.316.316,0,0,1,.243-.122Zm1.4.669h-.243c0,.365,0,.547-.365.608v.243C64.411,28.955,64.411,28.529,64.411,28.225Zm.182,6.326c.243-.061.426-.122.487-.122l-.061-.182a3.423,3.423,0,0,1-.608.122Q64.594,34.46,64.594,34.551Zm-2.312-6.935a1.082,1.082,0,0,0-.487.426l.182.365a1.64,1.64,0,0,1,.487-.426Zm.912.852-.182-.3a2.117,2.117,0,0,0-.912.426l.182.365A1.241,1.241,0,0,1,63.195,28.468Zm2.981,2.981.061.182c.973-.426.912-1.7.852-2.372v-.3h-.243v.3C66.966,29.989,67.027,31.084,66.175,31.449Zm.426.487.122.182c1.095-.487.973-1.886.912-2.616v-.365h-.243V29.5C67.453,30.232,67.514,31.449,66.6,31.935Zm-4.076-.122a4.08,4.08,0,0,0,2.8-.912l-.122-.182a3.81,3.81,0,0,1-2.676.852Zm3.041-.182-.122-.182a4.968,4.968,0,0,1-3.163.73v.243A5.337,5.337,0,0,0,65.567,31.631Zm.243-.608.061.182c.912-.365.852-1.521.791-2.129v-.243h-.243v.3C66.48,29.745,66.54,30.719,65.81,31.023ZM64.351,29.2l-.061-.061a4.216,4.216,0,0,0-1.886.547l.182.365a4.758,4.758,0,0,1,1.642-.547h.243l-.061-.061a1.058,1.058,0,0,0,.365-.973v-.122h-.243v.122A.546.546,0,0,1,64.351,29.2Zm-1.642,1.034.182.365a5.237,5.237,0,0,1,2.312-.608l-.182-.3a1.241,1.241,0,0,0,.243-1.095v-.182H65.02v.182a1.248,1.248,0,0,1-.3,1.034A8.427,8.427,0,0,0,62.708,30.232Zm2.312-.061h0a14.324,14.324,0,0,0-2.129.669l.182.365a8.91,8.91,0,0,1,2.494-.669c-.061.061-.122.061-.182.122l.061.182c.852-.365.791-1.277.73-1.825v-.243h-.243v.243a2.047,2.047,0,0,1-.243,1.338l-.061-.122h-.3a1.96,1.96,0,0,0,.365-1.4v-.182h-.243v.182C65.567,29.259,65.628,29.928,65.02,30.171Zm-9-.669-.243-.426-.182.122.3.426ZM52,34.429c.061-.061.061-.122.122-.182l-.061-.061L52,34.429Zm8.7-7,.182.365h.061l-.182-.365Zm-8.942,7.3c.061-.061.061-.122.122-.182l-.3-.182-.122.182Zm8.881-6.265a.212.212,0,0,0-.061-.122l.182.365C60.7,28.59,60.64,28.529,60.64,28.468Zm-9.794,3.224h0c-.061-.061-.122-.061-.243-.182v.061h.122v.182Zm10.341-3.65h.3l-.182-.365H61Zm-.243-.912.182.365c.061,0,.182.061.243-.061l-.182-.3C61.127,27.13,61,27.069,60.944,27.13Zm-.365,1.277h0c.061.061.061.061.061.122A.212.212,0,0,0,60.579,28.407Zm-.426-.852-.182-.365H59.91l.182.365Zm-1.095.122-.122-.3-.182.122.122.3Zm.487,3.467.122-.182a.774.774,0,0,1-.426-.547c-.122-.608.547-1.46,1.277-2.251l-.061-.061-.182-.365c-.122,0-.243.061-.3,0l.182.365h.182c-.852.973-1.4,1.764-1.277,2.372A.853.853,0,0,0,59.545,31.145Zm.73-2.616-.122.182.243.182.182-.122Zm-2.494-.3a1.836,1.836,0,0,1-.487-.487l-.182.122a1.508,1.508,0,0,0,.547.547Zm.365-.122-.365-.426L57.6,27.8l.426.487Zm.608-.3-.243-.3-.182.122.243.365Zm-.3.182-.3-.365-.182.122.3.426Zm2.068-1.46c-.122,0-.243-.061-.365-.061l.182.365c.122,0,.243.061.365.061ZM60.4,29.259l-.3-.122-.122-.061-.122.182.122.061c.243.122.3.182.426.122Zm-.122.3a1.646,1.646,0,0,1-.487-.182l-.122.182c.3.122.547.243.669.182Zm-.182.973-.061-.182a.981.981,0,0,1-.669-.122l-.061.182C59.545,30.536,59.91,30.658,60.093,30.536Zm.426-1.521-.061-.061-.3-.182-.122.182.3.182c.061.061.122.122.182.061Zm-.365,1.034a.937.937,0,0,1-.669-.122l-.122.182a1.068,1.068,0,0,0,.852.122Zm.061-.243a.829.829,0,0,1-.608-.122l-.122.182a1.522,1.522,0,0,0,.791.182Zm8.82.365ZM59.849,56.145l-.3-.426a22.252,22.252,0,0,1-24.514-.061l-.3.426a22.307,22.307,0,0,0,12.592,3.832A22.689,22.689,0,0,0,59.849,56.145Z" transform="translate(-1.879)" fill="#b9a773"/></g></g></svg>